<svg width="167" height="96" viewBox="0 0 167 96" fill="none" xmlns="http://www.w3.org/2000/svg">
<g filter="url(#filter0_d_2_75)">
<path d="M26.5002 5.98189C26.2033 5.98189 25.9167 5.93661 25.647 5.85266V9.91937H27.3533V5.85266C27.0836 5.93673 26.7971 5.98189 26.5002 5.98189Z" fill="#135693"/>
<path d="M26.5 6.09642C28.1517 6.09642 29.4906 4.75749 29.4906 3.10583C29.4906 1.45417 28.1517 0.115234 26.5 0.115234C24.8484 0.115234 23.5094 1.45417 23.5094 3.10583C23.5094 4.75749 24.8484 6.09642 26.5 6.09642Z" fill="#6BC1DD"/>
<g opacity="0.15">
<path opacity="0.15" d="M26.0267 3.10583C26.0267 1.90402 26.7359 0.868286 27.7587 0.392908C27.3759 0.21511 26.9498 0.115234 26.5 0.115234C24.8483 0.115234 23.5094 1.45423 23.5094 3.10583C23.5094 4.75742 24.8483 6.0963 26.5 6.0963C26.9498 6.0963 27.3759 5.99643 27.7587 5.81863C26.7359 5.34337 26.0267 4.30764 26.0267 3.10583Z" fill="#440075"/>
</g>
<path d="M45.562 14.5879H43.7985V30.8568H45.562C46.5288 30.8568 47.3199 30.0658 47.3199 29.099V16.3456C47.3199 15.3789 46.5288 14.5879 45.562 14.5879Z" fill="#9EA7AF"/>
<path d="M9.20129 14.5876H7.32139C6.35459 14.5876 5.56366 15.3787 5.56366 16.3454V29.0987C5.56366 30.0655 6.35459 30.8564 7.32139 30.8564H9.20117L9.20129 14.5876Z" fill="#9EA7AF"/>
<path d="M10.4 52.1416H7.98432C7.1596 52.1416 6.39347 51.891 5.75781 51.4618V57.1859C5.75781 57.8304 6.28518 58.3578 6.92971 58.3578H10.4V52.1416Z" fill="#C5CCD3"/>
<path d="M45.0155 52.1411H42.5999V58.3574H46.0702C46.7148 58.3574 47.2421 57.8301 47.2421 57.1855V51.4615C46.6064 51.8905 45.8402 52.1411 45.0155 52.1411Z" fill="#C5CCD3"/>
<path opacity="0.15" d="M8.21877 57.1858V52.1413H7.98432C7.1596 52.1413 6.39347 51.8907 5.75781 51.4615V57.1856C5.75781 57.8302 6.28518 58.3575 6.92971 58.3575H9.39066C8.74613 58.3577 8.21877 57.8303 8.21877 57.1858Z" fill="#440075"/>
<path d="M10.4 43.1824H7.98435C5.78389 43.1824 4 44.9663 4 47.1667V48.3386C4 50.5391 5.784 52.3228 7.98435 52.3228H10.3999L10.4 43.1824Z" fill="#E6E9ED"/>
<path d="M45.0155 43.1816H42.5999V52.3222H45.0155C47.2161 52.3222 48.9999 50.5383 48.9999 48.338V47.1661C48.9999 44.9654 47.216 43.1816 45.0155 43.1816Z" fill="#E6E9ED"/>
<g opacity="0.15">
<path opacity="0.15" d="M6.81257 48.338V47.1661C6.81257 44.9655 8.59646 43.1818 10.7969 43.1818H7.98435C5.78389 43.1818 4 44.9657 4 47.1661V48.338C4 50.5385 5.784 52.3222 7.98435 52.3222H10.7969C8.59634 52.3222 6.81257 50.5385 6.81257 48.338Z" fill="#440075"/>
</g>
<path d="M30.3902 35.3853H22.6106V38.2924H30.3902V35.3853Z" fill="#9EA7AF"/>
<path opacity="0.15" d="M25.4455 35.3853H22.6106V38.2924H25.4455V35.3853Z" fill="#440075"/>
<path d="M35.651 41.0662V39.175C35.651 38.6192 35.1963 38.1644 34.6405 38.1644H18.0182C17.4622 38.1644 17.0074 38.6192 17.0074 39.175V41.0662H35.651Z" fill="#C5CCD3"/>
<path opacity="0.15" d="M20.5123 41.0662V39.175C20.5123 38.6192 20.9671 38.1644 21.5231 38.1644H18.0182C17.4622 38.1644 17.0074 38.6192 17.0074 39.175V41.0662H20.5123Z" fill="#440075"/>
<path d="M40.9556 40.8676H12.0439C11.0771 40.8676 10.286 41.6586 10.286 42.6254V58.3578H42.7134V42.6254C42.7134 41.6586 41.9225 40.8676 40.9556 40.8676Z" fill="#9EA7AF"/>
<g opacity="0.15">
<path opacity="0.15" d="M15.4004 40.8676H12.0439C11.0771 40.8676 10.286 41.6586 10.286 42.6254V58.3578H13.6425V42.6254C13.6425 41.6586 14.4336 40.8676 15.4004 40.8676Z" fill="#440075"/>
</g>
<path d="M43.9122 33.7616C43.9122 34.7284 43.1212 35.5193 42.1545 35.5193H10.8451C9.87839 35.5193 9.08734 34.7284 9.08734 33.7616V11.5635C9.08734 10.5967 9.87839 9.80579 10.8451 9.80579H42.1545C43.1212 9.80579 43.9122 10.5967 43.9122 11.5635V33.7616Z" fill="#C5CCD3"/>
<g opacity="0.15">
<path opacity="0.15" d="M12.4373 33.7616V11.5635C12.4373 10.5967 13.2283 9.80579 14.1951 9.80579H10.8451C9.87839 9.80579 9.08734 10.5967 9.08734 11.5635V33.7617C9.08734 34.7285 9.87839 35.5194 10.8451 35.5194H14.1951C13.2283 35.5193 12.4373 34.7284 12.4373 33.7616Z" fill="#440075"/>
</g>
<path d="M39.7526 22.6954C39.7526 26.0488 37.0342 28.7667 33.6811 28.7667H19.3186C15.9653 28.7667 13.247 26.0487 13.247 22.6954C13.247 19.3422 15.9653 16.6241 19.3186 16.6241H33.6811C37.0342 16.6241 39.7526 19.3422 39.7526 22.6954Z" fill="#135693"/>
<g opacity="0.15">
<path opacity="0.15" d="M16.6561 22.6954C16.6561 19.3422 19.3744 16.6241 22.7277 16.6241H19.3186C15.9653 16.6241 13.247 19.3423 13.247 22.6954C13.247 26.0488 15.9653 28.7667 19.3186 28.7667H22.7277C19.3744 28.7667 16.6561 26.0487 16.6561 22.6954Z" fill="#440075"/>
</g>
<path d="M18.7123 25.0682C20.0162 25.0682 21.0731 24.0071 21.0731 22.6981C21.0731 21.389 20.0162 20.3279 18.7123 20.3279C17.4084 20.3279 16.3514 21.389 16.3514 22.6981C16.3514 24.0071 17.4084 25.0682 18.7123 25.0682Z" fill="#6BC1DD"/>
<path d="M34.3331 25.0669C35.637 25.0669 36.694 24.0057 36.694 22.6967C36.694 21.3877 35.637 20.3265 34.3331 20.3265C33.0292 20.3265 31.9723 21.3877 31.9723 22.6967C31.9723 24.0057 33.0292 25.0669 34.3331 25.0669Z" fill="#6BC1DD"/>
<path d="M36.9737 58.3568V48.1405C36.9737 47.496 36.4463 46.9686 35.8018 46.9686H17.1984C16.5539 46.9686 16.0266 47.496 16.0266 48.1405V58.3568H36.9737Z" fill="#135693"/>
<path d="M28.6093 58.3567V55.0617C28.6093 54.8683 28.4511 54.7101 28.2578 54.7101H24.7421C24.5489 54.7101 24.3906 54.8683 24.3906 55.0617V58.3567H28.6093Z" fill="#FFC502"/>
<path d="M21.578 50.6367H18.8828C18.4115 50.6367 18.0296 50.2549 18.0296 49.7836C18.0296 49.3123 18.4115 48.9304 18.8828 48.9304H21.578C22.0493 48.9304 22.4312 49.3123 22.4312 49.7836C22.4312 50.2547 22.0493 50.6367 21.578 50.6367Z" fill="#C5CCD3"/>
<path d="M20.4063 52.718H18.8828C18.4115 52.718 18.0297 52.3362 18.0297 51.8649C18.0297 51.3936 18.4115 51.0117 18.8828 51.0117H20.4063C20.8776 51.0117 21.2595 51.3936 21.2595 51.8649C21.2595 52.3362 20.8775 52.718 20.4063 52.718Z" fill="#C5CCD3"/>
<path d="M21.5781 54.8024H18.8828C18.4115 54.8024 18.0297 54.4204 18.0297 53.9492C18.0297 53.4779 18.4115 53.0961 18.8828 53.0961H21.5781C22.0494 53.0961 22.4313 53.4779 22.4313 53.9492C22.4313 54.4205 22.0494 54.8024 21.5781 54.8024Z" fill="#C5CCD3"/>
<path d="M20.0547 56.884H18.8828C18.4115 56.884 18.0297 56.5022 18.0297 56.0309C18.0297 55.5597 18.4115 55.1777 18.8828 55.1777H20.0547C20.526 55.1777 20.9079 55.5597 20.9079 56.0309C20.9079 56.5022 20.5259 56.884 20.0547 56.884Z" fill="#C5CCD3"/>
<path d="M33.7301 56.0281H31.6498C31.1562 56.0281 30.7562 55.6281 30.7562 55.1344C30.7562 54.6407 31.1563 54.2407 31.6498 54.2407H33.7301C34.2237 54.2407 34.6239 54.6408 34.6239 55.1344C34.6239 55.6282 34.2237 56.0281 33.7301 56.0281Z" fill="#E6E9ED"/>
<path d="M32.6906 52.9309C33.7272 52.9309 34.5675 52.0905 34.5675 51.0539C34.5675 50.0173 33.7272 49.177 32.6906 49.177C31.654 49.177 30.8137 50.0173 30.8137 51.0539C30.8137 52.0905 31.654 52.9309 32.6906 52.9309Z" fill="#5DC647"/>
<path d="M28.6615 52.0366C28.6615 52.2348 28.4994 52.3968 28.3013 52.3968H24.699C24.5009 52.3968 24.3388 52.2348 24.3388 52.0366V50.0728C24.3388 49.8746 24.5009 49.7125 24.699 49.7125H28.3013C28.4994 49.7125 28.6615 49.8746 28.6615 50.0728V52.0366Z" fill="#6BC1DD"/>
<path d="M13.9898 83.1895L12.8518 80.025H8.49482L7.38024 83.1895H5.41608L9.67955 71.7474H11.7061L15.9695 83.1895H13.9898ZM12.3608 78.4193L11.293 75.3172C11.215 75.1094 11.1059 74.782 10.9656 74.3351C10.8305 73.8883 10.737 73.5609 10.685 73.3531C10.5447 73.9922 10.3395 74.6911 10.0693 75.4497L9.04042 78.4193H12.3608ZM21.6516 74.4131C22.0205 74.4131 22.3245 74.4391 22.5635 74.491L22.3842 76.198C22.1244 76.1356 21.8542 76.1044 21.5736 76.1044C20.841 76.1044 20.246 76.3435 19.7887 76.8215C19.3367 77.2996 19.1106 77.9205 19.1106 78.6844V83.1895H17.279V74.569H18.7131L18.9548 76.0889H19.0483C19.3341 75.5744 19.7056 75.1665 20.1629 74.8652C20.6253 74.5638 21.1216 74.4131 21.6516 74.4131ZM27.3804 81.8644C27.8273 81.8644 28.2741 81.7943 28.721 81.654V83.0336C28.5184 83.1219 28.2559 83.1946 27.9338 83.2518C27.6168 83.3142 27.2869 83.3453 26.9439 83.3453C25.2084 83.3453 24.3406 82.4308 24.3406 80.6017V75.9564H23.1637V75.1457L24.4264 74.4754L25.0499 72.6516H26.1801V74.569H28.6353V75.9564H26.1801V80.5706C26.1801 81.0122 26.2892 81.3396 26.5074 81.5527C26.7309 81.7605 27.0219 81.8644 27.3804 81.8644ZM32.283 83.1895H30.4513V74.569H32.283V83.1895ZM30.3422 72.2852C30.3422 71.9579 30.4306 71.7059 30.6072 71.5292C30.7891 71.3525 31.0463 71.2642 31.3789 71.2642C31.701 71.2642 31.9504 71.3525 32.1271 71.5292C32.309 71.7059 32.3999 71.9579 32.3999 72.2852C32.3999 72.597 32.309 72.8438 32.1271 73.0257C31.9504 73.2024 31.701 73.2907 31.3789 73.2907C31.0463 73.2907 30.7891 73.2024 30.6072 73.0257C30.4306 72.8438 30.3422 72.597 30.3422 72.2852ZM39.2355 75.9564H37.131V83.1895H35.2916V75.9564H33.873V75.099L35.2916 74.5378V73.9766C35.2916 72.9581 35.5306 72.2047 36.0087 71.7163C36.4867 71.2226 37.2168 70.9758 38.1989 70.9758C38.8432 70.9758 39.4771 71.0823 40.1007 71.2954L39.6174 72.6827C39.1654 72.5373 38.7341 72.4645 38.3236 72.4645C37.9079 72.4645 37.6039 72.5944 37.4116 72.8542C37.2246 73.1088 37.131 73.4934 37.131 74.0078V74.569H39.2355V75.9564ZM42.5325 83.1895H40.7008V74.569H42.5325V83.1895ZM40.5917 72.2852C40.5917 71.9579 40.68 71.7059 40.8567 71.5292C41.0386 71.3525 41.2958 71.2642 41.6284 71.2642C41.9505 71.2642 42.1999 71.3525 42.3766 71.5292C42.5585 71.7059 42.6494 71.9579 42.6494 72.2852C42.6494 72.597 42.5585 72.8438 42.3766 73.0257C42.1999 73.2024 41.9505 73.2907 41.6284 73.2907C41.2958 73.2907 41.0386 73.2024 40.8567 73.0257C40.68 72.8438 40.5917 72.597 40.5917 72.2852ZM48.6432 83.3453C47.339 83.3453 46.3465 82.966 45.6658 82.2074C44.9903 81.4435 44.6525 80.3497 44.6525 78.926C44.6525 77.4762 45.0059 76.3617 45.7126 75.5822C46.4244 74.8028 47.4507 74.4131 48.7913 74.4131C49.7006 74.4131 50.519 74.582 51.2465 74.9197L50.6931 76.3928C49.9189 76.0915 49.2797 75.9408 48.7757 75.9408C47.2844 75.9408 46.5388 76.9306 46.5388 78.9104C46.5388 79.8769 46.7232 80.6043 47.0922 81.0928C47.4663 81.576 48.0119 81.8177 48.729 81.8177C49.5448 81.8177 50.3164 81.615 51.0439 81.2097V82.8075C50.7165 82.9998 50.3658 83.1375 49.9916 83.2206C49.6227 83.3038 49.1732 83.3453 48.6432 83.3453ZM54.902 83.1895H53.0704V74.569H54.902V83.1895ZM52.9613 72.2852C52.9613 71.9579 53.0496 71.7059 53.2263 71.5292C53.4081 71.3525 53.6653 71.2642 53.9979 71.2642C54.3201 71.2642 54.5695 71.3525 54.7461 71.5292C54.928 71.7059 55.0189 71.9579 55.0189 72.2852C55.0189 72.597 54.928 72.8438 54.7461 73.0257C54.5695 73.2024 54.3201 73.2907 53.9979 73.2907C53.6653 73.2907 53.4081 73.2024 53.2263 73.0257C53.0496 72.8438 52.9613 72.597 52.9613 72.2852ZM62.9224 83.1895L62.556 81.9891H62.4937C62.078 82.5139 61.6597 82.8725 61.2388 83.0647C60.8179 83.2518 60.2775 83.3453 59.6176 83.3453C58.7706 83.3453 58.1081 83.1167 57.63 82.6594C57.1572 82.2022 56.9208 81.5553 56.9208 80.7187C56.9208 79.8301 57.2507 79.1598 57.9106 78.7077C58.5705 78.2557 59.576 78.0088 60.927 77.9673L62.4157 77.9205V77.4606C62.4157 76.9099 62.2858 76.4994 62.026 76.2292C61.7714 75.9538 61.3739 75.8161 60.8335 75.8161C60.3918 75.8161 59.9683 75.881 59.563 76.0109C59.1577 76.1408 58.768 76.2941 58.3939 76.4708L57.8015 75.1613C58.2692 74.9171 58.781 74.7326 59.337 74.6079C59.893 74.478 60.4178 74.4131 60.9114 74.4131C62.0078 74.4131 62.834 74.6521 63.39 75.1302C63.9512 75.6082 64.2318 76.3591 64.2318 77.3827V83.1895H62.9224ZM60.1944 81.9424C60.8595 81.9424 61.3921 81.7579 61.7922 81.389C62.1975 81.0148 62.4001 80.4926 62.4001 79.8223V79.0741L61.2934 79.1208C60.4308 79.152 59.802 79.2975 59.4071 79.5573C59.0174 79.8119 58.8226 80.2042 58.8226 80.7343C58.8226 81.1188 58.9369 81.4176 59.1655 81.6306C59.3941 81.8384 59.7371 81.9424 60.1944 81.9424ZM68.62 83.1895H66.7883V71.0615H68.62V83.1895ZM75.5881 83.1895V71.7942H77.4509V83.1895H75.5881ZM87.8563 83.1895H86.0168V77.8893C86.0168 77.2242 85.8817 76.728 85.6115 76.4006C85.3465 76.0733 84.923 75.9096 84.3411 75.9096C83.5668 75.9096 83.0004 76.1382 82.6419 76.5955C82.2834 77.0527 82.1041 77.8192 82.1041 78.8948V83.1895H80.2724V74.569H81.7066L81.9638 75.6991H82.0573C82.3171 75.2886 82.6861 74.9717 83.1641 74.7482C83.6422 74.5248 84.1722 74.4131 84.7542 74.4131C86.8222 74.4131 87.8563 75.4653 87.8563 77.5698V83.1895ZM93.6163 81.8644C94.0632 81.8644 94.51 81.7943 94.9569 81.654V83.0336C94.7542 83.1219 94.4918 83.1946 94.1697 83.2518C93.8527 83.3142 93.5227 83.3453 93.1798 83.3453C91.4443 83.3453 90.5765 82.4308 90.5765 80.6017V75.9564H89.3996V75.1457L90.6622 74.4754L91.2858 72.6516H92.416V74.569H94.8712V75.9564H92.416V80.5706C92.416 81.0122 92.5251 81.3396 92.7433 81.5527C92.9668 81.7605 93.2577 81.8644 93.6163 81.8644ZM100.452 83.3453C99.1113 83.3453 98.0616 82.9556 97.303 82.1762C96.5495 81.3916 96.1728 80.3134 96.1728 78.9416C96.1728 77.5334 96.5235 76.4266 97.225 75.6212C97.9265 74.8158 98.8904 74.4131 100.117 74.4131C101.255 74.4131 102.154 74.7586 102.814 75.4497C103.473 76.1408 103.803 77.0917 103.803 78.3024V79.2923H98.059C98.085 80.1289 98.311 80.7732 98.7371 81.2253C99.1632 81.6722 99.7634 81.8956 100.538 81.8956C101.047 81.8956 101.52 81.8488 101.956 81.7553C102.398 81.6566 102.871 81.4955 103.375 81.2721V82.7608C102.928 82.9738 102.476 83.1245 102.019 83.2128C101.561 83.3012 101.039 83.3453 100.452 83.3453ZM100.117 75.8005C99.5347 75.8005 99.0671 75.9849 98.7137 76.3539C98.3656 76.7228 98.1577 77.2606 98.0902 77.9673H102.003C101.993 77.2554 101.821 76.7176 101.489 76.3539C101.156 75.9849 100.699 75.8005 100.117 75.8005ZM107.716 83.1895H105.884V71.0615H107.716V83.1895ZM112.174 83.1895H110.343V71.0615H112.174V83.1895ZM116.633 83.1895H114.801V74.569H116.633V83.1895ZM114.692 72.2852C114.692 71.9579 114.78 71.7059 114.957 71.5292C115.139 71.3525 115.396 71.2642 115.729 71.2642C116.051 71.2642 116.3 71.3525 116.477 71.5292C116.659 71.7059 116.75 71.9579 116.75 72.2852C116.75 72.597 116.659 72.8438 116.477 73.0257C116.3 73.2024 116.051 73.2907 115.729 73.2907C115.396 73.2907 115.139 73.2024 114.957 73.0257C114.78 72.8438 114.692 72.597 114.692 72.2852ZM126.539 74.569V75.5744L125.066 75.8472C125.201 76.0291 125.313 76.2525 125.401 76.5175C125.49 76.7825 125.534 77.0631 125.534 77.3593C125.534 78.2479 125.227 78.9468 124.614 79.456C124.001 79.9652 123.157 80.2198 122.081 80.2198C121.806 80.2198 121.556 80.199 121.333 80.1575C120.938 80.4017 120.74 80.6875 120.74 81.0148C120.74 81.2123 120.831 81.3604 121.013 81.4591C121.2 81.5578 121.541 81.6072 122.034 81.6072H123.539C124.489 81.6072 125.212 81.8099 125.705 82.2152C126.199 82.6205 126.446 83.205 126.446 83.9689C126.446 84.9458 126.043 85.6992 125.238 86.2292C124.432 86.7592 123.268 87.0242 121.746 87.0242C120.572 87.0242 119.675 86.8164 119.057 86.4007C118.438 85.985 118.129 85.3926 118.129 84.6236C118.129 84.0936 118.296 83.6467 118.628 83.283C118.966 82.9244 119.436 82.675 120.039 82.5347C119.795 82.4308 119.592 82.2645 119.431 82.0359C119.275 81.8021 119.197 81.5578 119.197 81.3032C119.197 80.9811 119.288 80.7083 119.47 80.4848C119.652 80.2614 119.922 80.0406 120.281 79.8223C119.834 79.6301 119.47 79.3183 119.189 78.887C118.914 78.4505 118.776 77.9413 118.776 77.3593C118.776 76.424 119.07 75.6991 119.657 75.1847C120.249 74.6703 121.091 74.4131 122.182 74.4131C122.427 74.4131 122.681 74.4313 122.946 74.4676C123.216 74.4988 123.419 74.5326 123.554 74.569H126.539ZM119.766 84.5301C119.766 84.925 119.943 85.229 120.296 85.442C120.655 85.655 121.156 85.7616 121.8 85.7616C122.798 85.7616 123.541 85.6187 124.03 85.3329C124.518 85.0471 124.762 84.6678 124.762 84.1949C124.762 83.8208 124.627 83.5532 124.357 83.3921C124.092 83.2362 123.596 83.1583 122.868 83.1583H121.481C120.956 83.1583 120.538 83.2804 120.226 83.5246C119.919 83.774 119.766 84.1092 119.766 84.5301ZM120.553 77.3593C120.553 77.8997 120.691 78.3154 120.966 78.6064C121.247 78.8974 121.647 79.0429 122.167 79.0429C123.227 79.0429 123.757 78.4765 123.757 77.3437C123.757 76.7825 123.624 76.3513 123.359 76.0499C123.099 75.7433 122.702 75.59 122.167 75.59C121.637 75.59 121.234 75.7407 120.959 76.0421C120.688 76.3435 120.553 76.7825 120.553 77.3593ZM131.91 83.3453C130.569 83.3453 129.519 82.9556 128.761 82.1762C128.007 81.3916 127.631 80.3134 127.631 78.9416C127.631 77.5334 127.981 76.4266 128.683 75.6212C129.384 74.8158 130.348 74.4131 131.574 74.4131C132.712 74.4131 133.611 74.7586 134.271 75.4497C134.931 76.1408 135.261 77.0917 135.261 78.3024V79.2923H129.517C129.543 80.1289 129.769 80.7732 130.195 81.2253C130.621 81.6722 131.221 81.8956 131.995 81.8956C132.505 81.8956 132.977 81.8488 133.414 81.7553C133.856 81.6566 134.328 81.4955 134.832 81.2721V82.7608C134.386 82.9738 133.934 83.1245 133.476 83.2128C133.019 83.3012 132.497 83.3453 131.91 83.3453ZM131.574 75.8005C130.993 75.8005 130.525 75.9849 130.172 76.3539C129.823 76.7228 129.616 77.2606 129.548 77.9673H133.461C133.45 77.2554 133.279 76.7176 132.946 76.3539C132.614 75.9849 132.156 75.8005 131.574 75.8005ZM144.926 83.1895H143.087V77.8893C143.087 77.2242 142.952 76.728 142.681 76.4006C142.416 76.0733 141.993 75.9096 141.411 75.9096C140.637 75.9096 140.07 76.1382 139.712 76.5955C139.353 77.0527 139.174 77.8192 139.174 78.8948V83.1895H137.342V74.569H138.776L139.034 75.6991H139.127C139.387 75.2886 139.756 74.9717 140.234 74.7482C140.712 74.5248 141.242 74.4131 141.824 74.4131C143.892 74.4131 144.926 75.4653 144.926 77.5698V83.1895ZM150.951 83.3453C149.647 83.3453 148.654 82.966 147.974 82.2074C147.298 81.4435 146.96 80.3497 146.96 78.926C146.96 77.4762 147.314 76.3617 148.02 75.5822C148.732 74.8028 149.759 74.4131 151.099 74.4131C152.009 74.4131 152.827 74.582 153.554 74.9197L153.001 76.3928C152.227 76.0915 151.588 75.9408 151.084 75.9408C149.592 75.9408 148.847 76.9306 148.847 78.9104C148.847 79.8769 149.031 80.6043 149.4 81.0928C149.774 81.576 150.32 81.8177 151.037 81.8177C151.853 81.8177 152.624 81.615 153.352 81.2097V82.8075C153.024 82.9998 152.674 83.1375 152.299 83.2206C151.931 83.3038 151.481 83.3453 150.951 83.3453ZM159.143 83.3453C157.802 83.3453 156.753 82.9556 155.994 82.1762C155.241 81.3916 154.864 80.3134 154.864 78.9416C154.864 77.5334 155.215 76.4266 155.916 75.6212C156.618 74.8158 157.581 74.4131 158.808 74.4131C159.946 74.4131 160.845 74.7586 161.505 75.4497C162.164 76.1408 162.494 77.0917 162.494 78.3024V79.2923H156.75C156.776 80.1289 157.002 80.7732 157.428 81.2253C157.854 81.6722 158.454 81.8956 159.229 81.8956C159.738 81.8956 160.211 81.8488 160.647 81.7553C161.089 81.6566 161.562 81.4955 162.066 81.2721V82.7608C161.619 82.9738 161.167 83.1245 160.71 83.2128C160.252 83.3012 159.73 83.3453 159.143 83.3453ZM158.808 75.8005C158.226 75.8005 157.758 75.9849 157.405 76.3539C157.057 76.7228 156.849 77.2606 156.781 77.9673H160.694C160.684 77.2554 160.512 76.7176 160.18 76.3539C159.847 75.9849 159.39 75.8005 158.808 75.8005Z" fill="#3A68B8"/>
</g>
<defs>
<filter id="filter0_d_2_75" x="0" y="0.115234" width="166.494" height="94.9091" filterUnits="userSpaceOnUse" color-interpolation-filters="sRGB">
<feFlood flood-opacity="0" result="BackgroundImageFix"/>
<feColorMatrix in="SourceAlpha" type="matrix" values="0 0 0 0 0 0 0 0 0 0 0 0 0 0 0 0 0 0 127 0" result="hardAlpha"/>
<feOffset dy="4"/>
<feGaussianBlur stdDeviation="2"/>
<feComposite in2="hardAlpha" operator="out"/>
<feColorMatrix type="matrix" values="0 0 0 0 0 0 0 0 0 0 0 0 0 0 0 0 0 0 0.25 0"/>
<feBlend mode="normal" in2="BackgroundImageFix" result="effect1_dropShadow_2_75"/>
<feBlend mode="normal" in="SourceGraphic" in2="effect1_dropShadow_2_75" result="shape"/>
</filter>
</defs>
</svg>
