<svg width="83" height="66" viewBox="0 0 83 66" fill="none" xmlns="http://www.w3.org/2000/svg">
<g filter="url(#filter0_d_19_19)">
<rect x="4" y="8" width="50" height="50" fill="#FCA311"/>
<path d="M79 25C79 28.283 78.3534 31.5339 77.097 34.5671C75.8406 37.6002 73.9991 40.3562 71.6777 42.6777C69.3562 44.9991 66.6002 46.8406 63.5671 48.097C60.5339 49.3534 57.283 50 54 50C50.717 50 47.4661 49.3534 44.4329 48.097C41.3998 46.8406 38.6438 44.9991 36.3223 42.6777C34.0009 40.3562 32.1594 37.6002 30.903 34.5671C29.6466 31.5339 29 28.283 29 25L54 25H79Z" fill="#14213D"/>
</g>
<defs>
<filter id="filter0_d_19_19" x="0" y="8" width="83" height="58" filterUnits="userSpaceOnUse" color-interpolation-filters="sRGB">
<feFlood flood-opacity="0" result="BackgroundImageFix"/>
<feColorMatrix in="SourceAlpha" type="matrix" values="0 0 0 0 0 0 0 0 0 0 0 0 0 0 0 0 0 0 127 0" result="hardAlpha"/>
<feOffset dy="4"/>
<feGaussianBlur stdDeviation="2"/>
<feComposite in2="hardAlpha" operator="out"/>
<feColorMatrix type="matrix" values="0 0 0 0 0 0 0 0 0 0 0 0 0 0 0 0 0 0 0.25 0"/>
<feBlend mode="normal" in2="BackgroundImageFix" result="effect1_dropShadow_19_19"/>
<feBlend mode="normal" in="SourceGraphic" in2="effect1_dropShadow_19_19" result="shape"/>
</filter>
</defs>
</svg>
