<svg width="22" height="21" viewBox="0 0 22 21" fill="none" xmlns="http://www.w3.org/2000/svg">
<path fill-rule="evenodd" clip-rule="evenodd" d="M10.994 0.00195312C11.374 0.00195312 11.722 0.218053 11.891 0.559393L14.744 6.34073L21.123 7.26529C21.5 7.31992 21.813 7.58388 21.931 7.94609C22.049 8.30831 21.95 8.70589 21.677 8.97153L17.054 13.4715L18.144 19.8259C18.209 20.2012 18.054 20.5805 17.746 20.8042C17.438 21.0279 17.03 21.0572 16.693 20.8796L11 17.88L5.29403 20.8801C4.95703 21.0572 4.54902 21.0277 4.24102 20.804C3.93302 20.5802 3.77903 20.2011 3.84303 19.8259L4.93302 13.4715L0.310022 8.97153C0.0370221 8.70589 -0.0609687 8.30831 0.0570314 7.94609C0.174031 7.58388 0.488023 7.31992 0.864023 7.26529L7.24403 6.34073L10.097 0.559393C10.266 0.218053 10.613 0.00195312 10.994 0.00195312Z" fill="#F5DB76"/>
</svg>
