<?xml version="1.0" standalone="no"?>
<!DOCTYPE svg PUBLIC "-//W3C//DTD SVG 1.1//EN" "http://www.w3.org/Graphics/SVG/1.1/DTD/svg11.dtd" >
<svg xmlns="http://www.w3.org/2000/svg" xmlns:xlink="http://www.w3.org/1999/xlink" version="1.1">
<metadata></metadata>
<defs>
<font id="sailec-bolduploaded_file" horiz-adv-x="831" >
<font-face units-per-em="2048" ascent="1530" descent="-518" />
<missing-glyph horiz-adv-x="462" />
<glyph horiz-adv-x="0" />
<glyph unicode="&#xd;" horiz-adv-x="1228" />
<glyph horiz-adv-x="0" />
<glyph horiz-adv-x="0" />
<glyph unicode=" "  horiz-adv-x="462" />
<glyph unicode="&#x09;" horiz-adv-x="462" />
<glyph unicode="&#xa0;" horiz-adv-x="462" />
<glyph unicode="!" horiz-adv-x="663" d="M150 158q0 78 52 130t128 52t129 -52t53 -130q0 -76 -53 -128.5t-129 -52.5t-128 52.5t-52 128.5zM156 1532h350l-19 -1065h-315z" />
<glyph unicode="&#x22;" horiz-adv-x="858" d="M84 1546h287l-31 -577h-227zM487 1546h287l-29 -577h-229z" />
<glyph unicode="#" horiz-adv-x="1370" d="M12 369l56 237h215l71 309h-217l58 238h217l92 379h250l-92 -379h227l92 379h250l-90 -379h217l-58 -238h-217l-73 -309h221l-55 -237h-222l-88 -369h-250l89 369h-230l-86 -369h-252l88 369h-213zM532 606h228l74 309h-230z" />
<glyph unicode="$" horiz-adv-x="1357" d="M92 469l322 16q2 -53 24.5 -96t61.5 -73.5t92 -47t115 -16.5q106 0 173.5 41t67.5 135q0 88 -81 130t-234 81q-104 27 -195.5 57.5t-161 79.5t-109.5 124t-40 185q0 84 26.5 162t82 139.5t137.5 104.5t192 57v224h248v-230q94 -16 172 -55t133.5 -97.5t87 -135 t33.5 -171.5l-324 -16q-2 98 -64.5 155.5t-172.5 57.5q-111 0 -169 -51t-58 -133q0 -43 17 -73t53 -51.5t92.5 -39t136.5 -35.5q117 -31 213 -66.5t164.5 -87t105.5 -123.5t37 -174q0 -109 -35 -189.5t-96.5 -138t-145.5 -90t-180 -44.5v-226h-248v230q-211 31 -340 152.5 t-133 328.5z" />
<glyph unicode="%" horiz-adv-x="1826" d="M63 1169q0 88 28 159t76 121t114.5 77.5t144.5 27.5t144.5 -27.5t114.5 -77.5t74.5 -121t26.5 -159q0 -86 -26.5 -157.5t-74.5 -121.5t-114.5 -78t-144.5 -28t-144.5 28t-114.5 78t-76 121.5t-28 157.5zM264 0l1010 1532h289l-1010 -1532h-289zM283 1169q0 -84 38.5 -131 t104.5 -47q63 0 102 46t39 132t-37.5 131.5t-103.5 45.5t-104.5 -45.5t-38.5 -131.5zM1040 365q0 88 28 158.5t76 120.5t114.5 77t144.5 27t144.5 -27t114.5 -77t74.5 -120.5t26.5 -158.5t-26.5 -160t-74.5 -122t-114.5 -78t-144.5 -28t-144.5 28t-114.5 78t-76 121.5 t-28 160.5zM1260 365q0 -86 38.5 -132.5t104.5 -46.5t103.5 46.5t37.5 132.5q0 84 -37.5 130t-103.5 46t-104.5 -46t-38.5 -130z" />
<glyph unicode="&#x26;" horiz-adv-x="1474" d="M80 422q0 74 17.5 133t49 110.5t75.5 93.5t97 81q-51 59 -85.5 128.5t-34.5 157.5q0 106 34.5 186.5t98 133.5t150.5 80.5t192 27.5q190 0 318 -101t157 -288l-305 -24q-10 72 -52 111.5t-118 39.5q-74 0 -117 -41t-43 -121q0 -41 16.5 -74.5t42 -64t60.5 -59.5t72 -60 l323 -270q23 53 41 113.5t35 130.5l278 -72q-29 -104 -61.5 -193t-69.5 -165l252 -211l-176 -228l-240 201q-98 -104 -213.5 -151t-250.5 -47q-137 0 -238.5 34.5t-169.5 95t-101.5 140.5t-33.5 172zM401 451q0 -96 61 -149.5t165 -53.5q141 0 250 108l-371 312 q-49 -41 -77 -92.5t-28 -124.5z" />
<glyph unicode="'" horiz-adv-x="454" d="M84 1546h287l-31 -577h-227z" />
<glyph unicode="(" horiz-adv-x="610" d="M76 655q0 266 70.5 480.5t172.5 369.5l259 -90q-86 -150 -145.5 -337t-59.5 -423t59.5 -423t145.5 -336l-259 -91q-102 156 -172.5 370t-70.5 480z" />
<glyph unicode=")" horiz-adv-x="610" d="M35 -104q84 150 143.5 338t59.5 421t-59.5 422t-143.5 338l258 90q51 -78 95 -170t77 -199.5t52.5 -227.5t19.5 -253t-19.5 -252.5t-52.5 -227t-77 -200t-95 -170.5z" />
<glyph unicode="*" horiz-adv-x="755" d="M14 1241l52 156l235 -82l-6 250h166l-6 -250l235 82l51 -156l-237 -76l149 -194l-133 -99l-141 203l-143 -205l-134 101l150 194z" />
<glyph unicode="+" horiz-adv-x="1122" d="M63 623v270h353v360h291v-360h352v-270h-352v-365h-291v365h-353z" />
<glyph unicode="," horiz-adv-x="499" d="M78 158q0 76 49 129t127 53q80 0 124 -56.5t44 -144.5q0 -147 -75 -266t-238 -203v125q106 68 137 185q-72 4 -120 55t-48 123z" />
<glyph unicode="-" d="M92 397v279h647v-279h-647z" />
<glyph unicode="." horiz-adv-x="518" d="M78 158q0 78 52 130t128 52t129 -52t53 -130q0 -76 -53 -128.5t-129 -52.5t-128 52.5t-52 128.5z" />
<glyph unicode="/" horiz-adv-x="862" d="M14 -137l523 1669h311l-520 -1669h-314z" />
<glyph unicode="0" horiz-adv-x="1333" d="M86 766q0 190 42 337.5t119 248t184.5 151.5t236.5 51q127 0 233.5 -51t183 -151.5t119.5 -248t43 -337.5t-43 -337.5t-119.5 -247t-183 -152t-233.5 -52.5q-129 0 -236.5 52.5t-184.5 152t-119 246.5t-42 338zM408 766q0 -250 62 -379t198 -129q135 0 196.5 129 t61.5 379t-61.5 379t-196.5 129t-197.5 -129t-62.5 -379z" />
<glyph unicode="1" horiz-adv-x="804" d="M0 1247l418 285h231v-1532h-315v1135l-195 -138z" />
<glyph unicode="2" horiz-adv-x="1110" d="M98 1077q4 223 126 350t345 127t346 -112.5t123 -323.5q0 -94 -22.5 -173t-60 -148.5t-88 -130t-103.5 -117.5l-252 -268h535v-281h-947v248l422 465q55 59 93 106t61.5 92t34 90.5t10.5 102.5q0 80 -38 125t-108 45q-86 0 -122.5 -56.5t-38.5 -158.5z" />
<glyph unicode="3" horiz-adv-x="1163" d="M72 444l315 19q4 -96 50 -150.5t138 -54.5q90 0 137.5 52t47.5 151q0 98 -56.5 145t-146.5 47h-158v271h154q78 0 129 46t51 132t-41 129t-117 43q-78 0 -121.5 -49t-47.5 -142l-314 17q4 211 128 332.5t355 121.5q229 0 352.5 -121.5t123.5 -326.5q0 -63 -13.5 -111.5 t-36 -86.5t-53 -66.5t-65.5 -50.5q82 -31 138 -118t56 -218q0 -113 -36.5 -201t-102.5 -149.5t-158 -94.5t-202 -33q-244 0 -372 126t-134 341z" />
<glyph unicode="4" horiz-adv-x="1234" d="M55 268v260l656 1004h250v-983h227v-281h-227v-268h-285v268h-621zM377 549h297v452z" />
<glyph unicode="5" horiz-adv-x="1167" d="M76 424l315 18q4 -86 50 -135t134 -49q96 0 144.5 61.5t48.5 159.5q0 100 -49 156.5t-135 56.5q-49 0 -89 -14t-75 -39h-293v893h899v-279h-584v-315q74 35 172 35q100 0 186.5 -31t150 -92.5t99 -152.5t35.5 -210q0 -117 -35.5 -211t-102 -160.5t-161 -102.5t-213.5 -36 q-117 0 -208 32t-154.5 90.5t-98 140.5t-36.5 184z" />
<glyph unicode="6" horiz-adv-x="1245" d="M84 492q0 98 29.5 175.5t83.5 153.5l499 711h379l-381 -531q102 -10 189.5 -51t150 -107.5t97 -155.5t34.5 -195q0 -117 -41 -212.5t-112.5 -162t-170 -103.5t-214.5 -37q-117 0 -216.5 37t-172 103.5t-113.5 162t-41 212.5zM406 502q0 -113 60.5 -178.5t158.5 -65.5 t159.5 65.5t61.5 178.5q0 115 -61.5 177t-159.5 62q-117 0 -176 -82q-43 -59 -43 -157z" />
<glyph unicode="7" horiz-adv-x="1107" d="M39 1253v279h1008v-254l-598 -1278h-347l598 1253h-661z" />
<glyph unicode="8" horiz-adv-x="1259" d="M94 455q0 123 49.5 214t135.5 148q-68 49 -107 126t-39 179q0 100 37 181t103.5 136.5t157 85t196.5 29.5t197 -29.5t158 -85t104.5 -136t37.5 -181.5q0 -102 -40 -178t-107 -125q86 -57 136 -149t50 -215q0 -111 -41 -200t-112.5 -150.5t-169 -94.5t-211.5 -33 q-115 0 -212.5 33t-169 94.5t-112.5 150.5t-41 200zM410 469q0 -100 63.5 -155.5t155.5 -55.5q94 0 156.5 55.5t62.5 155.5t-62.5 154.5t-156.5 54.5q-92 0 -155.5 -54.5t-63.5 -154.5zM449 1100q0 -78 52 -123t128 -45q78 0 129 45t51 123q0 84 -51 129t-129 45 q-76 0 -128 -45t-52 -129z" />
<glyph unicode="9" horiz-adv-x="1245" d="M80 1040q0 117 41 212.5t112.5 162t169.5 103t215 36.5t216.5 -36.5t172 -103t113.5 -162t41 -212.5q0 -98 -29.5 -176t-82.5 -153l-500 -711h-379l381 530q-102 10 -189.5 51.5t-149.5 108t-97 155.5t-35 195zM399 1030q0 -115 62 -177t160 -62q117 0 176 81 q43 57 43 158q0 113 -60.5 178.5t-158.5 65.5t-160 -65.5t-62 -178.5z" />
<glyph unicode=":" horiz-adv-x="518" d="M61 158q0 78 52.5 130t128.5 52t129 -52t53 -130q0 -76 -53.5 -128.5t-128.5 -52.5q-76 0 -128.5 52.5t-52.5 128.5zM61 897q0 78 52.5 130t128.5 52t129 -52t53 -130q0 -74 -53.5 -126t-128.5 -52q-76 0 -128.5 52t-52.5 126z" />
<glyph unicode=";" horiz-adv-x="518" d="M61 897q0 78 52.5 130t128.5 52t129 -52t53 -130q0 -74 -53 -126t-129 -52t-128.5 52t-52.5 126zM78 158q0 76 49 129t127 53q80 0 124 -56.5t44 -144.5q0 -147 -75 -266t-238 -203v125q106 68 137 185q-72 4 -120 55t-48 123z" />
<glyph unicode="&#x3c;" horiz-adv-x="1101" d="M59 756l979 544v-337l-395 -207l395 -207v-340z" />
<glyph unicode="=" horiz-adv-x="1122" d="M63 367v280h996v-280h-996zM63 868v281h996v-281h-996z" />
<glyph unicode="&#x3e;" horiz-adv-x="1101" d="M63 209v340l396 207l-396 207v337l979 -544z" />
<glyph unicode="?" horiz-adv-x="1095" d="M33 1094q4 104 43 190t106.5 146.5t160.5 93t206 32.5q119 0 213 -32.5t160.5 -93t102.5 -146.5t36 -192q0 -63 -17.5 -113.5t-45 -90.5t-63.5 -73t-75 -63q-68 -53 -110.5 -101.5t-42.5 -118.5v-65h-316v78q0 98 58.5 170.5t138.5 140.5q63 53 107 106.5t44 124.5 q0 88 -50 139.5t-140 51.5t-143.5 -53.5t-57.5 -151.5zM369 158q0 78 52 130t126 52q76 0 129 -52t53 -130q0 -76 -53 -128.5t-129 -52.5q-74 0 -126 52.5t-52 128.5z" />
<glyph unicode="@" horiz-adv-x="1644" d="M78 506q0 160 55 295t153.5 233.5t234.5 153.5t300 55q162 0 299 -55t236.5 -153.5t155 -233.5t55.5 -295q0 -217 -88 -322.5t-240 -105.5q-158 0 -211 104q-47 -53 -108.5 -81.5t-151.5 -28.5q-86 0 -158.5 30.5t-124 88t-80 136.5t-28.5 177t28.5 178t80 137.5t124 88 t158.5 30.5q88 0 148.5 -27.5t91.5 -66.5v63h217v-594q0 -80 71 -80q53 0 90 66t37 207q0 129 -45 238.5t-126 190.5t-191.5 127t-239.5 46q-131 0 -240.5 -46t-189.5 -127t-125 -190.5t-45 -238.5q0 -137 48 -248t129 -189.5t187.5 -120.5t223.5 -42q121 0 207 23.5 t160 66.5l47 -133q-84 -47 -180.5 -70.5t-233.5 -23.5q-152 0 -285 53t-232 150.5t-156.5 233.5t-57.5 300zM610 504q0 -111 53.5 -171.5t141.5 -60.5q86 0 139 56.5t53 158.5v35q0 102 -53 157.5t-139 55.5q-88 0 -141.5 -59.5t-53.5 -171.5z" />
<glyph unicode="A" horiz-adv-x="1615" d="M16 0l658 1532h266l659 -1532h-348l-125 295h-637l-127 -295h-346zM602 553h414l-207 489z" />
<glyph unicode="B" horiz-adv-x="1445" d="M154 0v1532h641q104 0 191 -25.5t150.5 -79t99.5 -133.5t36 -188q0 -111 -42 -184.5t-108 -116.5q88 -35 150.5 -124t62.5 -235q0 -111 -36.5 -193.5t-102.5 -139t-157 -85t-199 -28.5h-686zM469 281h334q92 0 150.5 42t58.5 140t-58.5 142t-146.5 44h-338v-368zM469 918 h305q80 0 128 38.5t48 126.5t-53 129t-139 41h-289v-335z" />
<glyph unicode="C" horiz-adv-x="1691" d="M100 766q0 186 58.5 332.5t163 248t247 154.5t310.5 53q139 0 262 -39.5t219 -115.5t160.5 -184.5t85.5 -243.5l-330 -29q-33 164 -140.5 248t-267.5 84q-100 0 -183 -36t-141.5 -101.5t-90 -159.5t-31.5 -211q0 -125 35 -219t95 -158.5t142 -97.5t176 -33 q158 0 266.5 83t139.5 243l332 -29q-23 -135 -87.5 -241.5t-159.5 -181.5t-218 -115t-262 -40q-168 0 -311.5 54.5t-248 156t-163 248t-58.5 330.5z" />
<glyph unicode="D" horiz-adv-x="1644" d="M154 0v1532h630q164 0 303.5 -52.5t241 -150.5t158.5 -240.5t57 -322.5t-57 -322.5t-159.5 -241t-242 -150.5t-303.5 -52h-628zM469 270h317q100 0 182.5 31t140.5 93.5t90 155.5t32 216t-32 216t-90 155.5t-140 93.5t-183 31h-317v-992z" />
<glyph unicode="E" horiz-adv-x="1232" d="M154 0v1532h983v-279h-666v-331h578v-273h-578v-368h668v-281h-985z" />
<glyph unicode="F" horiz-adv-x="1204" d="M154 0v1532h983v-279h-666v-331h543v-279h-543v-643h-317z" />
<glyph unicode="G" horiz-adv-x="1708" d="M100 766q0 186 58.5 332.5t162 248t246 154.5t310.5 53q133 0 249.5 -34.5t211 -102t160 -166t95.5 -223.5l-327 -55q-33 141 -133.5 221t-258.5 80q-207 0 -329.5 -127t-122.5 -381q0 -127 32.5 -222t92 -158.5t142.5 -95.5t185 -32q141 0 247 70.5t141 228.5h-385v279 h731v-103q0 -170 -51.5 -309t-145.5 -238.5t-229 -154t-303 -54.5t-310.5 54.5t-247 156t-163 248t-58.5 330.5z" />
<glyph unicode="H" horiz-adv-x="1560" d="M154 0v1532h317v-606h621v606h315v-1532h-315v645h-621v-645h-317z" />
<glyph unicode="I" horiz-adv-x="624" d="M154 0v1532h317v-1532h-317z" />
<glyph unicode="J" horiz-adv-x="1257" d="M37 494l317 51q8 -135 64.5 -211t159.5 -76q109 0 165 69.5t56 209.5v995h315v-985q0 -270 -142.5 -420t-396.5 -150q-238 0 -381 135.5t-157 381.5z" />
<glyph unicode="K" horiz-adv-x="1476" d="M154 0v1532h317v-633l520 633h406l-527 -627l588 -905h-373l-426 651l-188 -227v-424h-317z" />
<glyph unicode="L" horiz-adv-x="1210" d="M154 0v1532h317v-1251h668v-281h-985z" />
<glyph unicode="M" horiz-adv-x="1994" d="M154 0v1532h280l565 -1053l562 1053h278v-1532h-313v827l-422 -811h-209l-424 811v-827h-317z" />
<glyph unicode="N" horiz-adv-x="1564" d="M154 0v1532h268l674 -950v950h315v-1532h-268l-672 948v-948h-317z" />
<glyph unicode="O" horiz-adv-x="1792" d="M100 766q0 180 59.5 325.5t166 249t253 158.5t318.5 55t317.5 -55t251 -158.5t166 -249t60.5 -325.5t-60.5 -325.5t-166 -249t-251 -159t-317.5 -55.5t-318.5 55.5t-253 159t-166 249t-59.5 325.5zM422 766q0 -119 35 -213t97 -159.5t150.5 -100.5t192.5 -35t190.5 35 t148.5 100.5t97 159.5t35 213t-35 213t-97 159.5t-148.5 100.5t-190.5 35t-192.5 -35t-150.5 -100.5t-97 -159.5t-35 -213z" />
<glyph unicode="P" horiz-adv-x="1366" d="M154 0v1532h663q109 0 200 -33t156.5 -96.5t101.5 -154.5t36 -210t-36 -211t-101.5 -154.5t-156.5 -95t-200 -32.5h-346v-545h-317zM469 825h307q92 0 152.5 54.5t60.5 158.5t-60.5 159.5t-152.5 55.5h-307v-428z" />
<glyph unicode="Q" horiz-adv-x="1800" d="M100 766q0 180 59.5 325.5t166 249t253 158.5t318.5 55t317.5 -55t251 -158.5t166 -249t60.5 -325.5q0 -141 -37 -260t-105 -215l230 -225l-221 -226l-242 240q-92 -49 -197.5 -76t-222.5 -27q-172 0 -318.5 55.5t-253 159t-166 249t-59.5 325.5zM422 766q0 -119 35 -213 t97 -159.5t150.5 -100.5t192.5 -35q106 0 201 39l-232 229l221 222l232 -230q49 106 49 248q0 119 -35 213t-97 159.5t-148.5 100.5t-190.5 35t-192.5 -35t-150.5 -100.5t-97 -159.5t-35 -213z" />
<glyph unicode="R" horiz-adv-x="1447" d="M154 0v1532h655q109 0 200 -33t156.5 -95.5t101.5 -153.5t36 -210q0 -160 -66 -271.5t-180 -166.5l325 -602h-356l-299 551h-256v-551h-317zM469 831h301q92 0 151.5 53.5t59.5 155.5q0 104 -59.5 158.5t-151.5 54.5h-301v-422z" />
<glyph unicode="S" horiz-adv-x="1357" d="M92 469l322 16q2 -53 24.5 -96t61.5 -73.5t92 -47t115 -16.5q106 0 173.5 41t67.5 135q0 88 -81 130t-234 81q-104 27 -195.5 57.5t-161 79.5t-109.5 124t-40 185q0 94 34 179.5t101.5 150t170 102t239.5 37.5q125 0 227 -31.5t177 -93t117 -148.5t46 -198l-324 -16 q-2 98 -64.5 155.5t-172.5 57.5q-111 0 -169 -51t-58 -133q0 -43 17 -73t53 -51.5t92.5 -39t136.5 -35.5q117 -31 213 -66.5t164.5 -87t105.5 -123t37 -174.5q0 -123 -45 -211t-122 -145t-179.5 -85t-216.5 -28q-133 0 -245 32t-194 94.5t-128 154.5t-48 211z" />
<glyph unicode="T" horiz-adv-x="1419" d="M39 1253v279h1341v-279h-512v-1253h-315v1253h-514z" />
<glyph unicode="U" horiz-adv-x="1591" d="M143 623v909h316v-905q0 -180 86 -274.5t252 -94.5q164 0 250 94t86 275v905h315v-909q0 -154 -45 -274t-130 -203t-206 -126t-270 -43q-152 0 -274 43t-206 126t-129 203t-45 274z" />
<glyph unicode="V" horiz-adv-x="1603" d="M25 1532h346l432 -1040l430 1040h348l-645 -1532h-266z" />
<glyph unicode="W" horiz-adv-x="2304" d="M25 1532h344l327 -995l326 995h260l328 -995l325 995h344l-534 -1532h-266l-326 971l-326 -971h-268z" />
<glyph unicode="X" horiz-adv-x="1488" d="M37 0l473 778l-447 754h365l317 -543l316 543h364l-446 -754l473 -778h-367l-340 569l-342 -569h-366z" />
<glyph unicode="Y" horiz-adv-x="1523" d="M25 1532h366l371 -629l371 629h368l-579 -942v-590h-316v590z" />
<glyph unicode="Z" horiz-adv-x="1282" d="M76 0v240l708 1013h-698v279h1106v-240l-713 -1011h733v-281h-1136z" />
<glyph unicode="[" horiz-adv-x="628" d="M109 -158v1628h479v-247h-182v-1133h182v-248h-479z" />
<glyph unicode="\" horiz-adv-x="862" d="M14 1532h312l522 -1669h-311z" />
<glyph unicode="]" horiz-adv-x="628" d="M43 90h180v1133h-180v247h479v-1628h-479v248z" />
<glyph unicode="^" horiz-adv-x="1220" d="M55 762l555 807l555 -807h-338l-217 342l-217 -342h-338z" />
<glyph unicode="_" horiz-adv-x="1409" d="M92 0h1225v-281h-1225v281z" />
<glyph unicode="`" horiz-adv-x="548" d="M18 1616h340l170 -391h-231z" />
<glyph unicode="a" horiz-adv-x="1140" d="M90 291q0 88 35 148.5t93 97t135 54t161 21.5l188 11v41q0 163 -135 163h-2q-78 0 -112.5 -43t-34.5 -96l-299 12q0 70 30.5 137.5t88 122t139.5 87t184 32.5q215 0 327.5 -107.5t112.5 -318.5v-653h-288v86q-45 -47 -111.5 -78t-159.5 -31q-160 0 -256 80t-96 234z M389 305q0 -53 35 -74.5t88 -21.5q82 0 136 43t54 129v45l-159 -10q-68 -4 -111 -29t-43 -82z" />
<glyph unicode="b" horiz-adv-x="1345" d="M147 0v1591h299v-624q41 47 118 79.5t179 32.5q113 0 207 -39t162 -111.5t105.5 -174t37.5 -226.5t-37.5 -226t-105.5 -174t-162 -112t-207 -39q-111 0 -191.5 39t-121.5 93v-109h-283zM446 506q0 -129 70 -199.5t180 -70.5q113 0 184.5 75.5t71.5 216.5t-71.5 218 t-184.5 77q-111 0 -180.5 -70.5t-69.5 -199.5v-47z" />
<glyph unicode="c" horiz-adv-x="1212" d="M90 528q0 131 41 233.5t112.5 173.5t172 107.5t217.5 36.5q96 0 181 -27.5t151.5 -80.5t110.5 -129t59 -172l-293 -25q-10 82 -66.5 130t-142.5 48q-104 0 -172 -76.5t-68 -218.5q0 -141 67.5 -216.5t172.5 -75.5q88 0 143 46t68 126l291 -27q-16 -94 -59.5 -169 t-110 -127t-150.5 -80t-182 -28q-117 0 -216.5 38t-172 109t-113.5 173t-41 231z" />
<glyph unicode="d" horiz-adv-x="1345" d="M90 528q0 125 38 226.5t105.5 174t160.5 111.5t206 39q104 0 181 -32.5t118 -79.5v624h297v-1591h-281v109q-41 -53 -121.5 -92.5t-193.5 -39.5t-206 39t-160.5 112t-105.5 174t-38 226zM393 528q0 -141 72 -216.5t184 -75.5q111 0 180.5 70.5t69.5 199.5v47 q0 129 -69.5 199.5t-180.5 70.5q-113 0 -184.5 -76.5t-71.5 -218.5z" />
<glyph unicode="e" horiz-adv-x="1224" d="M90 528q0 129 40 230.5t111.5 173.5t170 109.5t217.5 37.5q115 0 208 -35.5t159.5 -103.5t102.5 -166t36 -221v-119h-727q4 -98 61 -156.5t160 -58.5q78 0 128 31t66 86l301 -14q-14 -76 -57 -138.5t-107.5 -108.5t-147.5 -72t-175 -26q-121 0 -222.5 38t-173 110 t-111.5 174t-40 229zM408 633h426q-4 98 -54.5 155.5t-152.5 57.5q-96 0 -154.5 -55.5t-64.5 -157.5z" />
<glyph unicode="f" horiz-adv-x="778" d="M10 801v258h193v108q0 100 31.5 180t89 137.5t138.5 88.5t181 31q35 0 58.5 -1t46.5 -6v-258q-14 2 -31 3t-39 1q-78 0 -128 -46t-50 -121v-117h245v-258h-245v-801h-297v801h-193z" />
<glyph unicode="g" horiz-adv-x="1327" d="M90 528q0 125 38 226.5t105.5 173t160.5 111.5t206 40t193.5 -37.5t121.5 -93.5v111h281v-1098q0 -115 -38 -208t-107.5 -158.5t-168 -101.5t-220.5 -36q-125 0 -220.5 30t-163 83t-107.5 129t-54 166l297 10q10 -78 72.5 -121t164.5 -43q111 0 179.5 56.5t68.5 171.5 v151q-43 -47 -118.5 -80t-180.5 -33q-113 0 -206 39t-160.5 112t-105.5 174t-38 226zM393 528q0 -141 72 -218t184 -77q111 0 180.5 71t69.5 200v49q0 129 -69.5 199.5t-180.5 70.5q-113 0 -184.5 -76.5t-71.5 -218.5z" />
<glyph unicode="h" horiz-adv-x="1261" d="M147 0v1591h299v-622q35 43 99.5 76.5t169.5 33.5q92 0 167.5 -28.5t130 -84t85 -136t30.5 -183.5v-647h-299v590q0 102 -50 156.5t-136 54.5q-90 0 -143.5 -58.5t-53.5 -154.5v-588h-299z" />
<glyph unicode="i" horiz-adv-x="595" d="M119 1405q0 37 14 69.5t39 57t56.5 39t68.5 14.5q76 0 128 -52t52 -128q0 -74 -52 -126t-128 -52t-127 52t-51 126zM147 0v1059h299v-1059h-299z" />
<glyph unicode="j" horiz-adv-x="595" d="M-94 -270q27 -6 69 -6q78 0 126.5 45t48.5 122v1168h299v-1161q0 -100 -32 -180t-89.5 -136.5t-138 -87.5t-179.5 -31q-35 0 -58.5 1t-45.5 6v260zM119 1405q0 76 51 128t127 52t128 -52t52 -128q0 -74 -52 -126t-128 -52t-127 52t-51 126z" />
<glyph unicode="k" horiz-adv-x="1191" d="M147 0v1591h299v-909l342 377h363l-399 -453l428 -606h-363l-276 383l-95 -102v-281h-299z" />
<glyph unicode="l" horiz-adv-x="595" d="M147 0v1591h299v-1591h-299z" />
<glyph unicode="m" horiz-adv-x="1904" d="M147 0v1059h283v-109q35 55 101.5 92t177.5 37t194.5 -43t136.5 -125q47 72 126 120t200 48q182 0 291.5 -113.5t109.5 -316.5v-649h-299v590q0 102 -45 156.5t-131 54.5q-80 0 -127 -48t-57 -128v-625h-299v590q0 102 -45 156.5t-127 54.5q-90 0 -140.5 -58.5 t-50.5 -154.5v-588h-299z" />
<glyph unicode="n" horiz-adv-x="1265" d="M147 0v1059h283v-109q35 55 105.5 92t179.5 37q92 0 167.5 -28.5t130 -84t85 -136t30.5 -183.5v-647h-299v590q0 102 -50 156.5t-136 54.5q-90 0 -143.5 -58.5t-53.5 -154.5v-588h-299z" />
<glyph unicode="o" horiz-adv-x="1306" d="M90 528q0 125 42 226.5t118 174t179 111.5t224 39t224.5 -39t178 -111.5t118 -174t43.5 -226.5t-43.5 -226t-118 -174t-178 -112t-224.5 -39t-224 39t-179 112t-118 174t-42 226zM393 528q0 -139 72 -215.5t188 -76.5q117 0 188.5 76.5t71.5 215.5q0 141 -71.5 218 t-188.5 77t-188.5 -76.5t-71.5 -218.5z" />
<glyph unicode="p" horiz-adv-x="1345" d="M147 -522v1581h283v-111q41 55 121.5 93t191.5 38q113 0 207 -40t162 -111.5t105.5 -173t37.5 -226.5t-37.5 -226t-105.5 -174t-162 -112t-207 -39q-102 0 -179 33t-118 80v-612h-299zM446 504q0 -129 70 -200t180 -71q113 0 184.5 77t71.5 218t-71.5 218t-184.5 77 q-111 0 -180.5 -70.5t-69.5 -199.5v-49z" />
<glyph unicode="q" horiz-adv-x="1345" d="M90 528q0 125 38 226.5t105.5 173t160.5 111.5t206 40t193.5 -37.5t121.5 -93.5v111h281v-1581h-297v612q-41 -47 -117.5 -80t-181.5 -33q-113 0 -206 39t-160.5 112t-105.5 174t-38 226zM393 528q0 -141 72 -218t184 -77q111 0 180.5 71t69.5 200v49q0 129 -69.5 199.5 t-180.5 70.5q-113 0 -184.5 -76.5t-71.5 -218.5z" />
<glyph unicode="r" horiz-adv-x="774" d="M147 0v1059h289v-121q35 53 101.5 92t189.5 39v-289q-129 0 -205 -66.5t-76 -176.5v-537h-299z" />
<glyph unicode="s" horiz-adv-x="1036" d="M68 322l299 16q4 -59 39.5 -95t113.5 -36q61 0 97 24.5t36 71.5q0 25 -8 41t-29.5 29.5t-59.5 25t-95 25.5q-84 20 -153.5 42.5t-119 57.5t-76 87.5t-26.5 133.5q0 154 111.5 244t312.5 90q100 0 177 -25.5t130 -71.5t84 -108.5t37 -136.5l-297 -16q-4 57 -35 93t-100 36 q-121 0 -121 -90q0 -29 14.5 -45.5t41 -28.5t65.5 -21.5t86 -21.5q80 -20 145.5 -45t113.5 -60.5t74.5 -86t26.5 -121.5q0 -162 -112.5 -257.5t-321.5 -95.5q-205 0 -319.5 89.5t-130.5 255.5z" />
<glyph unicode="t" horiz-adv-x="827" d="M23 801v258h194l2 350h299l-2 -350h248v-258h-250l-2 -393q0 -88 48 -124t112 -36q33 0 54.5 3t37.5 7v-266q-33 -4 -69 -8t-97 -4q-86 0 -157.5 21.5t-122 64.5t-78 110.5t-27.5 159.5l2 465h-192z" />
<glyph unicode="u" horiz-adv-x="1232" d="M137 393v666h299v-602q0 -98 41 -149.5t129 -51.5q86 0 133 57.5t47 147.5v598h299v-1059h-282v106q-31 -49 -96.5 -89t-178.5 -40q-184 0 -287.5 111t-103.5 305z" />
<glyph unicode="v" horiz-adv-x="1173" d="M10 1059h330l248 -623l246 623h329l-456 -1059h-240z" />
<glyph unicode="w" horiz-adv-x="1732" d="M10 1059h328l207 -606l217 606h209l219 -606l207 606h327l-407 -1059h-238l-213 561l-213 -561h-237z" />
<glyph unicode="x" horiz-adv-x="1132" d="M25 0l329 535l-325 524h340l196 -324l197 324h340l-328 -524l336 -535h-342l-203 330l-200 -330h-340z" />
<glyph unicode="y" horiz-adv-x="1173" d="M14 1059h330l244 -631l241 631h332l-678 -1581h-325l270 616z" />
<glyph unicode="z" horiz-adv-x="931" d="M70 0v197l434 620h-426v242h770v-199l-432 -618h448v-242h-794z" />
<glyph unicode="{" horiz-adv-x="620" d="M35 535v243h16q51 0 77 11.5t34 36t2 64.5t-19 95q-27 123 -5 215t80.5 151.5t147.5 89t197 29.5h13v-247h-13q-92 0 -119.5 -58.5t-5.5 -208.5q8 -57 9.5 -109t-12 -92t-46.5 -65.5t-90 -32.5q57 -6 90 -32.5t46.5 -66.5t12.5 -92t-10 -110q-12 -76 -11 -127t16.5 -81.5 t44 -44t75.5 -13.5h13v-248h-13q-109 0 -197.5 30t-147 89t-80 151.5t4.5 215.5q12 55 18.5 95t-1.5 64.5t-34 36t-77 11.5h-16z" />
<glyph unicode="|" horiz-adv-x="589" d="M145 -137v1669h299v-1669h-299z" />
<glyph unicode="}" horiz-adv-x="620" d="M43 90h12q45 0 75 13.5t45 44t16.5 82t-11.5 126.5q-8 57 -9 109.5t12.5 92.5t45 66.5t88.5 32.5q-57 6 -88.5 32t-45 66t-12.5 92t9 109q23 150 -5 208.5t-120 58.5h-12v247h12q109 0 198 -29.5t147.5 -89t80 -151.5t-5.5 -215q-12 -55 -18 -95t2 -64.5t33.5 -36 t76.5 -11.5h17v-243h-17q-51 0 -76.5 -11.5t-33.5 -36t-2 -64.5t18 -95q27 -123 5.5 -215.5t-80 -151.5t-147.5 -89t-198 -30h-12v248z" />
<glyph unicode="~" horiz-adv-x="1114" d="M20 770q68 88 146 137t182 49q59 0 106.5 -18t90.5 -39.5t88 -40t100 -18.5q72 0 124 24.5t101 83.5l136 -196q-68 -88 -147 -139.5t-183 -51.5q-63 0 -112.5 18.5t-92.5 40t-86 40t-96 18.5q-72 0 -122 -23.5t-99 -83.5z" />
<glyph unicode="&#xa2;" horiz-adv-x="1212" d="M90 528q0 111 30 202t84 159.5t129 114t167 63.5v217h248v-215q154 -29 258 -132t129 -267l-293 -25q-10 82 -66.5 130t-142.5 48q-104 0 -172 -76.5t-68 -218.5q0 -141 68 -216.5t172 -75.5q88 0 143 46t68 126l291 -27q-27 -160 -130.5 -262.5t-256.5 -130.5v-230h-248 v234q-90 18 -166 63t-130 113t-84 159t-30 201z" />
<glyph unicode="&#xa3;" horiz-adv-x="1159" d="M55 627v247h170l-12 130q-27 262 85 406t357 144q215 0 327 -112.5t118 -308.5l-316 -17q0 72 -34.5 115t-100.5 43q-80 0 -115.5 -55.5t-25.5 -157.5l16 -187h307v-247h-282v-11q12 -125 -19.5 -203.5t-89.5 -131.5h674v-281h-1057v258q127 27 166 114t25 251v4h-193z " />
<glyph unicode="&#xa5;" horiz-adv-x="1523" d="M25 1532h366l371 -629l371 629h368l-495 -807h188v-184h-272v-135h272v-187h-272v-219h-316v219h-274v187h274v135h-274v184h190z" />
<glyph unicode="&#xa8;" horiz-adv-x="759" d="M20 1391q0 66 47 112.5t115 46.5t116 -47t48 -112q0 -70 -48 -116t-116 -46t-115 46t-47 116zM416 1391q0 66 47 112.5t115 46.5t114.5 -47t46.5 -112q0 -70 -47 -116t-114 -46q-68 0 -115 46t-47 116z" />
<glyph unicode="&#xa9;" horiz-adv-x="1218" d="M55 1034q0 113 42 208t116 166t175 111t222 40q119 0 220.5 -40t175 -111t115.5 -166t42 -208t-42 -208t-115.5 -165.5t-175 -110.5t-220.5 -40q-121 0 -222 40t-175 110.5t-116 166t-42 207.5zM172 1034q0 -92 32 -170t90 -133t138 -87t178 -32q96 0 176 32t138.5 87 t90.5 133t32 170t-32 170t-90.5 133.5t-138.5 87t-176 31.5q-98 0 -178 -31.5t-138 -87t-90 -133.5t-32 -170zM297 1038q0 76 23.5 135.5t66.5 100.5t100 62.5t125 21.5q57 0 107.5 -16.5t89.5 -47t64.5 -74.5t33.5 -100l-170 -10q-10 51 -44 77.5t-85 26.5 q-66 0 -104.5 -47t-38.5 -129q0 -86 43 -131t102 -45q49 0 83 26.5t44 76.5l170 -13q-18 -111 -99 -173t-196 -62q-68 0 -125 21.5t-100 63.5t-66.5 101.5t-23.5 134.5z" />
<glyph unicode="&#xab;" horiz-adv-x="1189" d="M31 528l334 482l237 -148l-240 -334l240 -333l-237 -148zM584 528l334 482l237 -148l-237 -334l237 -333l-237 -148z" />
<glyph unicode="&#xad;" d="M92 397v279h647v-279h-647z" />
<glyph unicode="&#xae;" horiz-adv-x="1218" d="M55 1034q0 113 42 208t116 166t175 111t222 40q119 0 220.5 -40t175 -111t115.5 -166t42 -208t-42 -208t-115.5 -165.5t-175 -110.5t-220.5 -40q-121 0 -222 40t-175 110.5t-116 166t-42 207.5zM172 1034q0 -92 32 -170t90 -133t138 -87t178 -32q96 0 176 32t138.5 87 t90.5 133t32 170t-32 170t-90.5 133.5t-138 87t-176.5 31.5q-98 0 -178 -31.5t-138 -87t-90 -133.5t-32 -170zM369 723v627h286q92 0 147.5 -53.5t55.5 -151.5q0 -125 -88 -176l117 -246h-180l-103 217h-72v-217h-163zM532 1071h80q35 0 56.5 17.5t21.5 56.5 q0 37 -21.5 54.5t-56.5 17.5h-80v-146z" />
<glyph unicode="&#xb4;" horiz-adv-x="548" d="M18 1225l175 391h335l-276 -391h-234z" />
<glyph unicode="&#xb8;" horiz-adv-x="561" d="M39 -477l47 158q45 -29 113 -29q35 0 70.5 15.5t35.5 56.5t-32.5 58t-79.5 17q-23 0 -40.5 -3t-33.5 -7l76 236h131l-27 -109q43 -4 85 -18.5t73.5 -41t51 -65.5t19.5 -88q0 -57 -24.5 -98t-64.5 -67.5t-91 -40t-106 -13.5q-68 0 -117 10t-86 29z" />
<glyph unicode="&#xbb;" horiz-adv-x="1189" d="M35 195l239 333l-239 334l237 148l334 -482l-334 -481zM588 195l239 333l-239 334l237 148l334 -482l-334 -481z" />
<glyph unicode="&#x2c6;" horiz-adv-x="800" d="M18 1227l238 362h289l239 -362h-249l-134 168l-133 -168h-250z" />
<glyph unicode="&#x2da;" horiz-adv-x="575" d="M20 1436q0 55 20.5 100t57.5 79t86.5 52.5t104.5 18.5t104 -18.5t86 -52.5t57.5 -79t20.5 -100t-20.5 -100.5t-57.5 -79t-86 -52t-104 -18.5t-104.5 18.5t-86.5 52t-57.5 78.5t-20.5 101zM197 1436q0 -41 24.5 -64.5t67.5 -23.5q41 0 65.5 23.5t24.5 64.5t-24.5 65.5 t-65.5 24.5q-43 0 -67.5 -24.5t-24.5 -65.5z" />
<glyph unicode="&#x2dc;" horiz-adv-x="786" d="M20 1239q-6 61 7.5 119.5t41 102.5t72 71t99.5 27q49 0 84.5 -17.5t66.5 -38t59.5 -38t61.5 -17.5q47 0 65.5 26.5t20.5 69.5h168q6 -61 -7.5 -119.5t-42 -102.5t-72.5 -70.5t-99 -26.5q-49 0 -85 17.5t-67 36.5t-58.5 36.5t-60.5 17.5q-47 0 -66.5 -26.5t-19.5 -67.5 h-168z" />
<glyph unicode="&#x2000;" horiz-adv-x="886" />
<glyph unicode="&#x2001;" horiz-adv-x="1772" />
<glyph unicode="&#x2002;" horiz-adv-x="886" />
<glyph unicode="&#x2003;" horiz-adv-x="1772" />
<glyph unicode="&#x2004;" horiz-adv-x="590" />
<glyph unicode="&#x2005;" horiz-adv-x="443" />
<glyph unicode="&#x2006;" horiz-adv-x="295" />
<glyph unicode="&#x2007;" horiz-adv-x="295" />
<glyph unicode="&#x2008;" horiz-adv-x="221" />
<glyph unicode="&#x2009;" horiz-adv-x="354" />
<glyph unicode="&#x200a;" horiz-adv-x="98" />
<glyph unicode="&#x2010;" d="M92 397v279h647v-279h-647z" />
<glyph unicode="&#x2011;" d="M92 397v279h647v-279h-647z" />
<glyph unicode="&#x2012;" d="M92 397v279h647v-279h-647z" />
<glyph unicode="&#x2013;" horiz-adv-x="1159" d="M92 397v279h975v-279h-975z" />
<glyph unicode="&#x2014;" horiz-adv-x="1634" d="M92 397v279h1450v-279h-1450z" />
<glyph unicode="&#x2018;" horiz-adv-x="458" d="M76 1118v2v2q2 147 75.5 264t235.5 201v-123q-108 -71 -135 -184q70 -4 118 -56.5t48 -123.5q0 -76 -48 -128t-126 -52q-80 0 -124 55t-44 143z" />
<glyph unicode="&#x2019;" horiz-adv-x="458" d="M41 1407q0 76 49 128t127 52q80 0 124 -55t44 -143q0 -147 -74.5 -266t-238.5 -203v124q106 68 135 185q-70 4 -118 55t-48 123z" />
<glyph unicode="&#x201a;" horiz-adv-x="458" d="M41 158q0 76 49 129t127 53q80 0 124 -56.5t44 -144.5q0 -147 -74.5 -266t-238.5 -203v125q106 68 135 185q-70 4 -118 55t-48 123z" />
<glyph unicode="&#x201c;" horiz-adv-x="886" d="M72 1118q0 147 74.5 266t238.5 203v-125q-106 -67 -137 -184q72 -4 120 -55.5t48 -122.5q0 -76 -49.5 -129t-126.5 -53q-80 0 -124 56t-44 144zM500 1118q0 147 74.5 266t238.5 203v-125q-106 -67 -137 -184q72 -4 120 -55.5t48 -122.5q0 -76 -49.5 -129t-126.5 -53 q-80 0 -124 56t-44 144z" />
<glyph unicode="&#x201d;" horiz-adv-x="886" d="M37 1407q0 76 49 129t127 53q80 0 124 -56t44 -144q0 -147 -75 -266t-238 -203v124q106 68 137 185q-72 4 -120 55t-48 123zM465 1407q0 76 49 129t127 53q80 0 124 -56t44 -144q0 -147 -75 -266t-238 -203v124q106 68 137 185q-72 4 -120 55t-48 123z" />
<glyph unicode="&#x201e;" horiz-adv-x="886" d="M41 158q0 76 49 129t127 53q80 0 124 -56.5t44 -144.5q0 -147 -74.5 -266t-238.5 -203v125q106 68 135 185q-70 4 -118 55t-48 123zM469 158q0 76 49 129t127 53q80 0 124 -56.5t44 -144.5q0 -147 -74.5 -266t-238.5 -203v125q106 68 135 185q-70 4 -118 55t-48 123z" />
<glyph unicode="&#x2022;" horiz-adv-x="714" d="M98 522q0 53 20.5 100.5t55.5 82t82 55t102 20.5q53 0 100.5 -20.5t82 -55t55 -82t20.5 -100.5q0 -55 -20.5 -102t-55 -82t-81.5 -55.5t-101 -20.5q-55 0 -102 20.5t-82 55.5t-55.5 82t-20.5 102z" />
<glyph unicode="&#x2026;" horiz-adv-x="1595" d="M78 158q0 78 52 130t128 52t129 -52t53 -130q0 -76 -53 -128.5t-129 -52.5t-128 52.5t-52 128.5zM600 158q0 78 52 130t128 52t129.5 -52t53.5 -130q0 -76 -53.5 -128.5t-129.5 -52.5t-128 52.5t-52 128.5zM1122 158q0 78 52.5 130t128.5 52t129 -52t53 -130 q0 -76 -53.5 -128.5t-128.5 -52.5q-76 0 -128.5 52.5t-52.5 128.5z" />
<glyph unicode="&#x202f;" horiz-adv-x="354" />
<glyph unicode="&#x2039;" horiz-adv-x="692" d="M31 528l413 476l213 -189l-268 -287l268 -286l-213 -189z" />
<glyph unicode="&#x203a;" horiz-adv-x="692" d="M35 242l268 286l-268 287l213 189l414 -476l-414 -475z" />
<glyph unicode="&#x205f;" horiz-adv-x="443" />
<glyph unicode="&#x20ac;" horiz-adv-x="1445" d="M20 500l70 184h143q-2 20 -2 39.5v42.5v36.5t2 35.5h-213l70 184h172q33 131 99.5 230.5t154.5 167t194.5 101t221.5 33.5q141 0 236.5 -32.5t183.5 -96.5l-99 -262q-59 51 -131.5 81t-175.5 30q-123 0 -214 -62.5t-138 -189.5h604l-70 -184h-573q-2 -16 -2 -35v-37 q0 -23 1 -42t3 -40h510l-68 -184h-401q47 -121 139 -181.5t209 -60.5q94 0 169 32t132 79l131 -265q-49 -31 -97 -55t-101.5 -39.5t-114.5 -24t-137 -8.5q-115 0 -219.5 34t-191.5 100.5t-152.5 164t-100.5 224.5h-244z" />
<glyph unicode="&#x2122;" horiz-adv-x="1830" d="M43 1321v211h696v-211h-239v-524h-219v524h-238zM844 797v735h186l248 -445l248 445h186v-735h-219v303l-166 -295h-98l-166 295v-303h-219z" />
<glyph unicode="&#x25fc;" horiz-adv-x="1054" d="M0 0v1055h1055v-1055h-1055z" />
</font>
</defs>
</svg>
