<?xml version="1.0" standalone="no"?>
<!DOCTYPE svg PUBLIC "-//W3C//DTD SVG 1.1//EN" "http://www.w3.org/Graphics/SVG/1.1/DTD/svg11.dtd" >
<svg xmlns="http://www.w3.org/2000/svg" xmlns:xlink="http://www.w3.org/1999/xlink" version="1.1">
<metadata></metadata>
<defs>
<font id="circular_stdmedium" horiz-adv-x="761" >
<font-face units-per-em="2048" ascent="1657" descent="-391" />
<missing-glyph horiz-adv-x="507" />
<glyph horiz-adv-x="0" />
<glyph horiz-adv-x="0" />
<glyph unicode="&#xd;" horiz-adv-x="507" />
<glyph unicode=" "  horiz-adv-x="507" />
<glyph unicode="&#x09;" horiz-adv-x="507" />
<glyph unicode="&#xa0;" horiz-adv-x="507" />
<glyph unicode="!" horiz-adv-x="663" d="M182 135.5q0 61.5 43 106.5t105 45q63 0 107 -45t44 -106.5t-44 -105.5t-107 -44q-61 0 -104.5 44t-43.5 105.5zM186 1452h289l-57 -1022h-172z" />
<glyph unicode="&#x22;" horiz-adv-x="798" d="M76 1210q0 61 39 101.5t100 40.5t100 -40t39 -102q0 -29 -6 -47l-92 -379h-84l-90 379q-6 31 -6 47zM444 1210q0 61 39 101.5t100.5 40.5t100.5 -40t39 -102q0 -29 -6 -47l-92 -379h-84l-90 379q-7 31 -7 47z" />
<glyph unicode="#" horiz-adv-x="1515" d="M92 336v178h291l66 305h-256v178h294l72 330h195l-72 -330h279l71 330h197l-72 -330h266v-178h-305l-65 -305h270v-178h-307l-72 -336h-196l71 336h-278l-72 -336h-195l72 336h-254zM578 514h278l66 305h-279z" />
<glyph unicode="$" horiz-adv-x="1218" d="M96 389l230 64q8 -96 61 -169t150 -96v377l-37 8q-166 37 -259.5 133.5t-93.5 243.5q0 152 110 265.5t280 136.5v217h188v-219q166 -27 257 -124.5t116 -217.5l-221 -70q-25 145 -152 195v-367l18 -4q178 -39 273.5 -143.5t95.5 -245.5q0 -145 -102.5 -258t-284.5 -138 v-217h-188v215q-199 25 -311.5 146t-129.5 268zM387 965q0 -57 38 -101.5t112 -58.5v336q-72 -18 -111 -66.5t-39 -109.5zM725 188q74 14 111.5 62.5t37.5 109.5q0 123 -149 164v-336z" />
<glyph unicode="%" horiz-adv-x="1714" d="M100 1016q0 137 99.5 233.5t236.5 96.5t236.5 -96.5t99.5 -233.5t-99.5 -232.5t-238.5 -95.5q-137 0 -235.5 95.5t-98.5 232.5zM285 0l946 1327h213l-944 -1327h-215zM291 1015.5q0 -65.5 42 -108.5t103.5 -43t102.5 43t41 108.5t-41 107.5t-102.5 42t-103.5 -42 t-42 -107.5zM956 309q0 137 99.5 233.5t237 96.5t236.5 -96.5t99 -233.5t-99 -232t-239 -95q-137 0 -235.5 95t-98.5 232zM1147 309.5q0 -65.5 42 -108.5t103.5 -43t102.5 43t41 108.5t-41 107.5t-102.5 42t-103.5 -42t-42 -107.5z" />
<glyph unicode="&#x26;" horiz-adv-x="1449" d="M139 354q0 129 61.5 217t190.5 185l15 10l-25 27q-166 170 -166 319q0 170 118 270.5t271 100.5q172 0 284.5 -99.5t112.5 -261.5q0 -172 -204 -327l-64 -47l242 -252l346 372v-307l-199 -219l328 -342h-317l-164 172q-184 -199 -398 -199q-199 0 -315.5 114t-116.5 267z M383 371q0 -72 53 -127.5t139 -55.5q115 0 242 138l2 2l-268 284l-49 -37q-119 -88 -119 -204zM449 1126q0 -78 96 -182l41 -45l84 62q98 74 98 165q0 66 -46 111t-116 45q-63 0 -110 -41t-47 -115z" />
<glyph unicode="'" horiz-adv-x="430" d="M76 1210q0 61 39 101.5t100 40.5t100 -40t39 -102q0 -29 -6 -47l-92 -379h-84l-90 379q-6 31 -6 47z" />
<glyph unicode="(" horiz-adv-x="649" d="M98 655.5q0 587.5 412 999.5l139 -127q-350 -383 -350 -873q0 -492 350 -874l-139 -125q-412 412 -412 999.5z" />
<glyph unicode=")" horiz-adv-x="649" d="M0 -219q350 381 350 874q0 492 -350 873l139 127q412 -408 412 -1000t-412 -999z" />
<glyph unicode="*" horiz-adv-x="917" d="M59 1092l60 176l243 -84v268h193v-266l244 82l59 -176l-248 -82l160 -209l-149 -111l-164 215l-154 -213l-151 111l155 207z" />
<glyph unicode="+" horiz-adv-x="1185" d="M106 500v194h386v400h202v-400h385v-194h-385v-404h-202v404h-386z" />
<glyph unicode="," horiz-adv-x="622" d="M133 150q0 66 49 110.5t121 44.5q82 0 134 -59.5t52 -157.5q0 -195 -103 -302.5t-230 -123.5v121q72 16 126 79.5t56 141.5q-20 -10 -49 -10q-68 0 -112 43t-44 113z" />
<glyph unicode="-" d="M92 494v211h578v-211h-578z" />
<glyph unicode="." horiz-adv-x="606" d="M137 153.5q0 69.5 48 119t118 49.5t119 -49.5t49 -119t-49 -117.5t-119 -48t-118 48t-48 117.5z" />
<glyph unicode="/" horiz-adv-x="933" d="M0 -10l715 1472h219l-715 -1472h-219z" />
<glyph unicode="0" horiz-adv-x="1267" d="M92 664q0 299 119 477q145 217 424 217q276 0 422 -217q119 -178 119 -477t-119 -478q-145 -217 -422 -217q-279 0 -424 217q-119 179 -119 478zM336 664q0 -258 94 -379q74 -98 205 -99q127 0 205 99q92 119 92 379t-92 378q-78 98 -205 99q-131 0 -205 -99 q-94 -116 -94 -378z" />
<glyph unicode="1" horiz-adv-x="770" d="M57 909v168q139 2 233.5 73t117.5 177h213v-1327h-242v909h-322z" />
<glyph unicode="2" horiz-adv-x="1099" d="M68 0q4 178 75.5 311t239.5 238l219 137q170 106 170 250q0 88 -58.5 147.5t-164.5 59.5q-113 0 -172.5 -68.5t-59.5 -177.5l7 -68l-238 17q-6 55 -6 76q0 180 128 308t345 128q213 0 340 -121t127 -297q0 -254 -256 -412l-258 -159q-113 -68 -135 -152h657v-217h-960z " />
<glyph unicode="3" horiz-adv-x="1128" d="M53 389l240 49q4 -115 78.5 -186.5t185.5 -71.5q117 0 184.5 65.5t67.5 160.5q0 106 -70.5 162.5t-165.5 56.5q-79 0 -124 -23l-113 182l366 328h-604v215h922v-205l-361 -315q160 -4 279 -112.5t119 -291.5q0 -180 -135.5 -307t-362.5 -127q-221 0 -357 122t-149 298z " />
<glyph unicode="4" horiz-adv-x="1202" d="M68 291v266l565 770h315v-819h223v-217h-223v-291h-241v291h-639zM289 508h418v571z" />
<glyph unicode="5" horiz-adv-x="1128" d="M66 367l231 59q8 -109 82 -178.5t186 -69.5q106 0 179 66.5t73 175.5q0 117 -73.5 181.5t-182.5 64.5q-139 0 -221 -93l-231 84l163 670h727v-215h-561l-82 -336q88 92 254 92q203 0 329 -118.5t126 -323.5q0 -193 -137 -326t-363 -133q-209 0 -348 118t-151 282z" />
<glyph unicode="6" horiz-adv-x="1189" d="M94 586q0 354 199 563t514 209q181 0 283 -66l-70 -200q-98 53 -227 53q-188 0 -312.5 -116t-140.5 -308q102 158 338 158q201 0 325.5 -123t124.5 -326t-145 -332t-358 -129q-246 0 -388.5 176.5t-142.5 440.5zM367 426q0 -111 76.5 -179.5t181.5 -68.5 q109 0 183.5 67.5t74.5 180.5t-75 180.5t-183.5 67.5t-183 -67.5t-74.5 -180.5z" />
<glyph unicode="7" horiz-adv-x="1011" d="M10 1112v215h991v-215q-49 -41 -95 -86t-126 -148.5t-139 -217t-113.5 -290.5t-70.5 -370h-254q16 207 75.5 398.5t133 315.5t144.5 218t120 137l47 43h-713z" />
<glyph unicode="8" horiz-adv-x="1157" d="M86 354q0 111 68.5 200t177.5 126q-94 35 -154.5 120t-60.5 183q0 166 130 270.5t330.5 104.5t331.5 -104.5t131 -270.5q0 -96 -60 -182t-155 -121q106 -39 176 -127t70 -199q0 -168 -134 -276.5t-359 -108.5q-223 0 -357.5 108.5t-134.5 276.5zM330 379 q0 -86 66.5 -144.5t181.5 -58.5q117 0 183 58.5t66 144.5t-66.5 145.5t-182.5 59.5q-115 0 -181.5 -59.5t-66.5 -145.5zM360 969q0 -84 60 -138.5t158 -56.5q98 2 158.5 56.5t60.5 138.5q0 78 -60.5 133t-159 55t-158 -55t-59.5 -133z" />
<glyph unicode="9" horiz-adv-x="1191" d="M76 895q0 203 143 333t356 130q223 0 374 -160t151 -461q0 -367 -173 -567.5t-507 -200.5q-192 0 -307 76l67 201q96 -61 238 -62q205 0 317.5 113t122.5 305q-39 -68 -124 -110.5t-199 -42.5q-188 0 -323.5 121.5t-135.5 324.5zM317 903q0 -113 74 -180.5t180 -67.5 q104 0 179 68.5t75 179.5q0 106 -75.5 176t-178.5 70q-104 0 -179 -68.5t-75 -177.5z" />
<glyph unicode=":" horiz-adv-x="618" d="M143 844q0 70 48.5 118t117.5 48q68 0 117 -48.5t49 -117.5q0 -68 -49 -116t-117 -48q-70 0 -118 48t-48 116zM145 152q0 70 48.5 117.5t117.5 47.5q68 0 117 -48t49 -117q0 -68 -49 -116t-117 -48q-70 0 -118 48t-48 116z" />
<glyph unicode=";" horiz-adv-x="628" d="M143 844q0 70 48.5 118t117.5 48q68 0 117 -48.5t49 -117.5q0 -68 -49 -116t-117 -48q-70 0 -118 48t-48 116zM145 141q0 61 47.5 105.5t114.5 44.5q78 0 127 -57.5t49 -149.5q0 -184 -98 -286.5t-219 -119.5v115q70 16 121 76.5t53 134.5q-20 -10 -47 -10 q-66 0 -107 40.5t-41 106.5z" />
<glyph unicode="&#x3c;" horiz-adv-x="1003" d="M72 500v192l864 434v-227l-619 -301l619 -303v-227z" />
<glyph unicode="=" horiz-adv-x="1224" d="M127 299v195h973v-195h-973zM127 702v193h973v-193h-973z" />
<glyph unicode="&#x3e;" horiz-adv-x="1003" d="M68 68v225l622 303l-622 301v229l864 -434v-192z" />
<glyph unicode="?" horiz-adv-x="1064" d="M68 1055q0 168 122.5 298t340 130t342 -121t124.5 -289q0 -215 -204 -360l-88 -62q-102 -72 -103 -194q0 -15 2 -27h-205q-4 53 -4 78q0 188 166 309l94 68q96 70 97 178q0 86 -57.5 146.5t-164.5 60.5q-109 0 -170 -70t-61 -164q0 -57 12 -92l-231 17q-12 43 -12 94z M354 135.5q0 61.5 44 106.5t105.5 45t105.5 -45t44 -106.5t-44 -105.5t-105 -44q-63 0 -106.5 44t-43.5 105.5z" />
<glyph unicode="@" horiz-adv-x="1691" d="M86 680q0 352 232.5 577.5t568.5 225.5q313 0 523 -191.5t210 -478.5q0 -227 -119.5 -377.5t-283.5 -152.5q-78 0 -131.5 33.5t-69.5 93.5q-41 -63 -105.5 -97t-134.5 -34q-135 0 -223 98t-88 254q0 201 118.5 335t286.5 134q68 0 126.5 -32t80.5 -93l19 98h180 l-109 -508q-6 -31 -6 -43q0 -78 70 -78q82 0 146.5 109t64.5 258q0 221 -153.5 362.5t-399.5 141.5q-266 0 -440.5 -176t-174.5 -459q0 -268 171 -439t462 -171q223 0 396 131l92 -125q-84 -78 -221.5 -125t-266.5 -47q-362 0 -591.5 215t-229.5 561zM655 645q0 -88 39 -142 t119 -54q94 0 154.5 86t64.5 219q0 82 -40 128t-113 46q-100 0 -162 -87t-62 -196z" />
<glyph unicode="A" horiz-adv-x="1456" d="M20 0l566 1452h284l566 -1452h-269l-137 365h-614l-135 -365h-261zM502 592h442l-221 594z" />
<glyph unicode="B" horiz-adv-x="1243" d="M174 0v1452h500q205 0 323.5 -108.5t118.5 -282.5q0 -113 -59.5 -196t-155.5 -117q117 -31 188.5 -125.5t71.5 -221.5q0 -176 -125 -288.5t-325 -112.5h-537zM418 209h250q111 0 177 56.5t66 152.5t-62.5 154.5t-172.5 58.5h-258v-422zM418 838h223q106 0 167.5 55 t61.5 147q0 94 -62.5 148.5t-172.5 54.5h-217v-405z" />
<glyph unicode="C" horiz-adv-x="1552" d="M86 725q0 340 217 549t514 209q262 0 431 -133t222 -338l-231 -78q-35 141 -141.5 229t-280.5 88q-195 0 -337 -138t-142 -388q0 -244 141.5 -382t339.5 -138q170 0 280.5 92t151.5 227l226 -73q-53 -203 -224.5 -342.5t-433.5 -139.5q-305 0 -519 207t-214 549z" />
<glyph unicode="D" horiz-adv-x="1478" d="M174 0v1452h514q307 0 507 -194.5t200 -534.5q0 -338 -201 -530.5t-508 -192.5h-512zM420 225h258q201 0 331 128t130 370q0 244 -129 374t-330 130h-260v-1002z" />
<glyph unicode="E" horiz-adv-x="1191" d="M174 0v1452h897v-229h-651v-385h590v-224h-590v-385h651v-229h-897z" />
<glyph unicode="F" horiz-adv-x="1140" d="M174 0v1452h903v-231h-657v-408h590v-227h-590v-586h-246z" />
<glyph unicode="G" horiz-adv-x="1585" d="M86 727q0 229 105.5 405.5t269.5 263.5t356 87q252 0 423 -125t233 -318l-232 -88q-39 131 -149.5 217t-274.5 86q-195 0 -338 -137t-143 -391q0 -252 139 -392t340 -140q197 0 300.5 103t115.5 222h-479v215h710v-735h-198l-19 184q-53 -90 -167.5 -152.5t-276.5 -62.5 q-297 0 -506 206t-209 552z" />
<glyph unicode="H" horiz-adv-x="1523" d="M174 0v1452h246v-600h682v600h248v-1452h-248v621h-682v-621h-246z" />
<glyph unicode="I" horiz-adv-x="598" d="M174 0v1452h250v-1452h-250z" />
<glyph unicode="J" horiz-adv-x="1120" d="M41 438v94l240 50v-136q0 -123 61 -184t162 -61q98 0 155.5 62.5t57.5 172.5v1016h246v-1010q0 -199 -127 -336t-330 -137q-213 0 -339 128t-126 341z" />
<glyph unicode="K" horiz-adv-x="1402" d="M174 0v1452h246v-696l624 696h324l-588 -641l594 -811h-309l-453 629l-192 -211v-418h-246z" />
<glyph unicode="L" horiz-adv-x="1136" d="M174 0v1452h246v-1219h665v-233h-911z" />
<glyph unicode="M" horiz-adv-x="1945" d="M174 0v1452h328l471 -1108l465 1108h334v-1452h-244v1069l-453 -1069h-213l-448 1065v-1065h-240z" />
<glyph unicode="N" horiz-adv-x="1566" d="M174 0v1452h313l660 -1030v1030h246v-1452h-256l-717 1100v-1100h-246z" />
<glyph unicode="O" horiz-adv-x="1648" d="M86 727q0 229 105.5 404.5t271.5 263.5t360.5 88t360.5 -88t272.5 -263.5t106.5 -404.5t-106.5 -405.5t-272.5 -264.5t-360.5 -88t-360.5 88t-271.5 264.5t-105.5 405.5zM338 727q0 -248 143.5 -386t342 -138t343 138t144.5 386t-144.5 386t-343 138t-342 -138 t-143.5 -386z" />
<glyph unicode="P" horiz-adv-x="1232" d="M174 0v1452h539q207 0 335 -125t128 -317q0 -195 -128 -319t-335 -124h-293v-567h-246zM420 784h256q117 0 183.5 60.5t66.5 163.5q0 104 -66.5 165.5t-183.5 61.5h-256v-451z" />
<glyph unicode="Q" horiz-adv-x="1648" d="M86 727q0 229 105.5 404.5t271.5 263.5t360.5 88t360.5 -88t272.5 -263.5t106.5 -404.5q0 -309 -189 -518l172 -193l-166 -141l-178 195q-172 -100 -379 -101q-195 0 -360.5 88t-271 264.5t-105.5 405.5zM338 727q0 -248 143.5 -386t341.5 -138q121 0 217 47l-239 266 l168 143l241 -268q100 137 101 336q0 248 -144.5 386t-343 138t-342 -138t-143.5 -386z" />
<glyph unicode="R" horiz-adv-x="1273" d="M174 0v1452h557q205 0 330 -126t125 -314q0 -156 -88 -266.5t-240 -147.5l328 -598h-279l-305 573h-180v-573h-248zM422 791h264q113 0 181.5 60t68.5 161q0 102 -68.5 162.5t-181.5 60.5h-264v-444z" />
<glyph unicode="S" horiz-adv-x="1226" d="M70 416l229 65q12 -123 98 -207t234 -84q127 0 195.5 56.5t68.5 144.5q0 72 -51 124t-144 73l-204 43q-170 35 -269.5 141.5t-99.5 265.5q0 182 145.5 313.5t348.5 131.5q231 0 353.5 -112t153.5 -259l-221 -70q-14 84 -83.5 154t-200.5 70q-109 0 -179.5 -61.5 t-70.5 -147.5q0 -150 170 -187l209 -43q188 -37 290.5 -149.5t102.5 -267.5q0 -180 -138.5 -310.5t-375.5 -130.5q-256 0 -399.5 134.5t-161.5 312.5z" />
<glyph unicode="T" horiz-adv-x="1243" d="M27 1221v231h1190v-231h-474v-1221h-245v1221h-471z" />
<glyph unicode="U" horiz-adv-x="1398" d="M158 506v946h243v-932q0 -152 79 -234.5t218 -82.5q141 0 219 82t78 235v932h246v-946q0 -254 -152.5 -395.5t-390 -141.5t-389 141.5t-151.5 395.5z" />
<glyph unicode="V" horiz-adv-x="1380" d="M20 1452h267l405 -1130l408 1130h260l-549 -1452h-250z" />
<glyph unicode="W" horiz-adv-x="2082" d="M27 1452h258l290 -1061l340 1061h256l347 -1069l284 1069h254l-407 -1452h-254l-353 1098l-352 -1098h-252z" />
<glyph unicode="X" horiz-adv-x="1323" d="M27 0l485 727l-481 725h295l338 -532l340 532h288l-483 -727l481 -725h-295l-338 530l-342 -530h-288z" />
<glyph unicode="Y" horiz-adv-x="1306" d="M20 1452h291l348 -608l351 608h276l-512 -838v-614h-246v614z" />
<glyph unicode="Z" horiz-adv-x="1302" d="M86 0v242l805 979h-782v231h1099v-233l-815 -986h826v-233h-1133z" />
<glyph unicode="[" horiz-adv-x="622" d="M174 -322v1958h438v-184h-237v-1587h237v-187h-438z" />
<glyph unicode="\" horiz-adv-x="935" d="M0 1462h225l711 -1472h-223z" />
<glyph unicode="]" horiz-adv-x="622" d="M10 -135h238v1587h-238v184h439v-1958h-439v187z" />
<glyph unicode="^" horiz-adv-x="1077" d="M41 721l401 733h193l401 -733h-231l-264 500l-267 -500h-233z" />
<glyph unicode="_" horiz-adv-x="1087" d="M20 0h1047v-197h-1047v197z" />
<glyph unicode="`" horiz-adv-x="583" d="M59 1425h285l180 -303h-194z" />
<glyph unicode="a" horiz-adv-x="1089" d="M92 270q0 127 83 204t218 97l256 39q74 10 74 72q0 68 -47 110t-141 42q-90 0 -143.5 -50.5t-61.5 -130.5l-217 49q14 135 128.5 230.5t290.5 95.5q217 0 320.5 -104.5t103.5 -268.5v-495q0 -98 13 -160h-221q-10 31 -11 127q-98 -158 -307 -158q-152 0 -245 89t-93 212z M330 285q0 -53 38.5 -91t106.5 -38q111 0 179.5 60t68.5 198v45l-260 -39q-133 -23 -133 -135z" />
<glyph unicode="b" horiz-adv-x="1236" d="M154 0v1483h233v-609q37 63 121 106.5t192 43.5q217 0 339 -146.5t122 -373.5q0 -231 -128 -380t-341 -149t-307 158v-133h-231zM385 502q0 -143 76 -229.5t192 -86.5q119 0 194 85t75 230.5t-74 228.5t-195 83q-117 0 -192.5 -83t-75.5 -228z" />
<glyph unicode="c" horiz-adv-x="1107" d="M76 500q0 229 146.5 378.5t363.5 149.5q186 0 304 -96t152 -232l-213 -77q-20 78 -78.5 132t-162.5 54q-115 0 -195 -83t-80 -226q0 -145 81 -229.5t198 -84.5q104 0 166.5 56.5t83.5 128.5l209 -76q-41 -133 -159 -229.5t-300 -96.5q-219 0 -367.5 151.5t-148.5 379.5z " />
<glyph unicode="d" horiz-adv-x="1232" d="M76 502q0 219 134 370.5t341 151.5q119 0 191.5 -43t101.5 -100v602h231v-1301q0 -100 10 -182h-227q-10 57 -10 129q-37 -68 -115 -111t-178 -43q-213 0 -346 149.5t-133 377.5zM313 502q0 -143 74 -230.5t195 -87.5q117 0 190.5 88t73.5 232q0 141 -72 225t-190.5 84 t-194.5 -85t-76 -226z" />
<glyph unicode="e" horiz-adv-x="1122" d="M76 504q0 229 144.5 376.5t340.5 147.5q229 0 358.5 -140t129.5 -378q0 -63 -7 -76h-729q4 -113 83 -186.5t190 -73.5q193 0 250 174l200 -63q-43 -137 -160.5 -226.5t-289.5 -89.5q-213 0 -361.5 145.5t-148.5 389.5zM319 608h490q-4 94 -66.5 157.5t-179.5 63.5 q-106 0 -172 -66.5t-72 -154.5z" />
<glyph unicode="f" horiz-adv-x="716" d="M35 791v206h174v138q0 166 96 262t252 96q84 0 125 -20v-203q-35 10 -86 10q-59 0 -103 -34t-44 -118v-131h231v-206h-231v-791h-240v791h-174z" />
<glyph unicode="g" horiz-adv-x="1206" d="M82 -55l219 57q12 -94 81 -154.5t169 -60.5q283 0 283 299v104q-35 -63 -111 -104t-178 -41q-201 0 -331 137t-130 348q0 203 129 344.5t332 141.5q219 0 295 -146v127h229v-903q0 -221 -125 -367.5t-387 -146.5q-193 0 -324 104.5t-151 260.5zM324 530 q0 -129 71.5 -205.5t188.5 -76.5q115 0 185.5 76.5t70.5 205.5q0 127 -72 204t-184 77q-115 0 -187.5 -77t-72.5 -204z" />
<glyph unicode="h" horiz-adv-x="1175" d="M154 0v1483h237v-582q96 125 285 125q176 0 270 -110.5t94 -284.5v-631h-237v590q0 100 -49 160.5t-156 60.5q-94 0 -148.5 -63.5t-58.5 -161.5v-586h-237z" />
<glyph unicode="i" horiz-adv-x="542" d="M117 1347.5q0 63.5 45 109.5t108 46q66 0 111 -45t45 -110q0 -63 -45 -108.5t-111 -45.5q-63 0 -108 45t-45 108.5zM154 0v997h235v-997h-235z" />
<glyph unicode="j" horiz-adv-x="544" d="M-41 -205q31 -6 72 -6q123 0 123 129v1079h237v-1097q0 -141 -80 -230.5t-217 -89.5q-90 0 -135 19v196zM117 1349.5q0 63.5 45 109.5t108 46q66 0 111 -46t45 -109.5t-46 -108.5t-109.5 -45t-108.5 45t-45 108.5z" />
<glyph unicode="k" horiz-adv-x="1114" d="M154 0v1483h235v-889l383 403h315l-409 -422l418 -575h-291l-293 408l-123 -129v-279h-235z" />
<glyph unicode="l" horiz-adv-x="544" d="M154 0v1483h237v-1483h-237z" />
<glyph unicode="m" horiz-adv-x="1787" d="M154 0v997h227v-127q41 74 124 115t171 41q100 0 180 -45t119 -131q104 176 323 176q147 0 250 -96t103 -283v-647h-230v608q0 92 -48 148.5t-144 56.5q-92 0 -149.5 -63.5t-57.5 -157.5v-592h-234v608q0 92 -48 148.5t-144 56.5q-94 0 -150.5 -62.5t-56.5 -158.5v-592 h-235z" />
<glyph unicode="n" horiz-adv-x="1175" d="M154 0v997h231v-133q47 82 126 122t169 40q176 0 268 -110.5t92 -284.5v-631h-237v590q0 100 -49 160.5t-156 60.5q-98 0 -152.5 -67t-54.5 -169v-575h-237z" />
<glyph unicode="o" horiz-adv-x="1185" d="M76 499.5q0 229.5 146.5 379t369.5 149.5q225 0 371.5 -149.5t146.5 -379t-146.5 -380t-371.5 -150.5q-223 0 -369.5 150.5t-146.5 380zM313 499.5q0 -147.5 81 -232.5t198 -85t197.5 84t80.5 234q0 147 -80.5 230t-197.5 83t-198 -83t-81 -230.5z" />
<glyph unicode="p" horiz-adv-x="1236" d="M154 -389v1386h229v-135q39 68 123 113t194 45q215 0 338 -146.5t123 -374t-129 -376t-340 -148.5q-102 0 -182 39t-121 99v-502h-235zM387 500q0 -141 75 -227.5t193.5 -86.5t193.5 86.5t75 227.5q0 139 -74 224t-195 85q-119 0 -193.5 -85t-74.5 -224z" />
<glyph unicode="q" horiz-adv-x="1220" d="M76 502q0 221 130 370.5t343 149.5q119 0 196.5 -47t108.5 -111v133h227v-1386h-233v508q-80 -143 -293 -144q-211 0 -345 150.5t-134 376.5zM315 501.5q0 -141.5 75 -229.5t191.5 -88t192.5 88t76 229.5t-75 225.5t-193.5 84t-192.5 -84t-74 -225.5z" />
<glyph unicode="r" horiz-adv-x="778" d="M154 0v997h231v-159q35 80 112.5 126t176.5 46q32 0 63 -6v-242q-41 6 -78 6q-268 0 -268 -293v-475h-237z" />
<glyph unicode="s" horiz-adv-x="935" d="M66 270l206 58q6 -72 59.5 -121t143.5 -49q70 0 110 32.5t40 81.5q0 86 -117 111l-148 33q-129 29 -198.5 106.5t-69.5 184.5q0 131 106.5 226t260.5 95q98 0 174 -28.5t118 -74.5t64.5 -89t28.5 -86l-201 -58q-8 57 -52 103.5t-132 46.5q-61 0 -102.5 -34t-41.5 -81 q0 -84 101 -104l151 -31q139 -31 213 -111t74 -192q0 -125 -99.5 -222.5t-277.5 -97.5q-102 0 -183 31t-127 79t-71.5 96t-29.5 95z" />
<glyph unicode="t" horiz-adv-x="747" d="M35 786v211h51q76 0 115 43t39 113v150h215v-306h207v-211h-207v-462q0 -66 30.5 -95.5t96.5 -29.5q41 0 82 8v-197q-51 -22 -138 -22h-8q-139 0 -219 78.5t-80 218.5v501h-184z" />
<glyph unicode="u" horiz-adv-x="1181" d="M143 369v628h238v-585q0 -100 49 -164t152 -64q100 0 154.5 61.5t54.5 162.5v589h237v-815q0 -90 10 -182h-227q-8 45 -8 111q-35 -66 -114 -103t-169 -37q-174 0 -275.5 113t-101.5 285z" />
<glyph unicode="v" horiz-adv-x="1075" d="M20 997h263l264 -712l258 712h250l-391 -997h-238z" />
<glyph unicode="w" horiz-adv-x="1667" d="M27 997h254l202 -690l236 690h246l235 -690l199 690h241l-319 -997h-238l-247 717l-242 -717h-244z" />
<glyph unicode="x" horiz-adv-x="1050" d="M23 0l362 504l-356 493h282q10 -16 111.5 -162.5t107.5 -156.5l218 319h270l-350 -489l362 -508h-278l-232 334q-6 -8 -60 -89t-105.5 -156t-59.5 -89h-272z" />
<glyph unicode="y" horiz-adv-x="1112" d="M16 997h269l286 -630l269 630h252l-635 -1400h-254l239 522z" />
<glyph unicode="z" horiz-adv-x="970" d="M78 0v207l506 581h-496v209h795v-200l-512 -588h522v-209h-815z" />
<glyph unicode="{" horiz-adv-x="747" d="M92 559v205q96 0 155.5 48t59.5 149v286q0 195 99.5 292t283.5 97h47v-182h-45q-94 0 -139 -47t-45 -152v-340q0 -100 -55.5 -165.5t-153.5 -87.5q98 -23 153.5 -90.5t55.5 -165.5v-340q0 -104 45 -150.5t139 -46.5h45v-182h-47q-184 0 -283.5 97t-99.5 292v284 q0 102 -59.5 150.5t-155.5 48.5z" />
<glyph unicode="|" horiz-adv-x="548" d="M174 -313v1949h201v-1949h-201z" />
<glyph unicode="}" horiz-adv-x="747" d="M10 -131h45q94 0 139.5 46t45.5 151v340q0 98 55 165.5t154 90.5q-98 23 -153.5 88t-55.5 165v340q0 104 -45 151.5t-140 47.5h-45v182h47q184 0 283.5 -97t99.5 -292v-286q0 -100 59.5 -148.5t155.5 -48.5v-205q-96 0 -155.5 -48t-59.5 -151v-284q0 -195 -99 -292 t-284 -97h-47v182z" />
<glyph unicode="~" horiz-adv-x="1181" d="M61 561q117 205 326 205q109 0 207 -55l94 -52q55 -31 113 -30q115 0 184 108l135 -108q-115 -203 -323 -203q-103 0 -209 57l-96 52q-57 29 -107 28q-106 0 -188 -110z" />
<glyph unicode="&#xa2;" horiz-adv-x="1118" d="M92 665.5q0 182.5 108.5 313.5t278.5 166v184h187v-180q141 -23 232 -107t120 -190l-205 -72q-33 125 -147 160v-555q63 18 104 64.5t55 97.5l201 -72q-35 -109 -127 -192.5t-233 -104.5v-178h-187v184q-170 35 -278.5 167t-108.5 314.5zM315 666q0 -100 44 -170 t120 -101v537q-164 -65 -164 -266z" />
<glyph unicode="&#xa3;" horiz-adv-x="1214" d="M127 0v213q100 39 159.5 111.5t59.5 160.5q0 25 -8 74h-201v195h131q-47 109 -47 215q0 164 119 276.5t303 112.5q217 0 319.5 -112.5t108.5 -262.5l-225 -37q-2 100 -55.5 153.5t-143.5 53.5q-80 0 -135 -50t-55 -138q0 -80 55 -211h385v-195h-326q4 -33 4 -49 q0 -203 -169 -299h362q86 0 133 55.5t47 136.5l221 -24q0 -166 -97 -272.5t-257 -106.5h-688z" />
<glyph unicode="&#xa5;" horiz-adv-x="1228" d="M47 1327h277l299 -514l290 514h267l-324 -536h240v-173h-357v-151h357v-172h-357v-295h-237v295h-350v172h350v151h-350v173h227z" />
<glyph unicode="&#xa8;" horiz-adv-x="804" d="M66 1280q0 55 37.5 94t93.5 39q57 0 96 -39t39 -94q0 -57 -39 -95t-96 -38q-55 0 -93 38t-38 95zM475 1280q0 55 38 94t93.5 39t94 -39t38.5 -94q0 -57 -38.5 -95t-94 -38t-93.5 38t-38 95z" />
<glyph unicode="&#xa9;" horiz-adv-x="1675" d="M86 727q0 313 219 534.5t530.5 221.5t532.5 -222.5t221 -533.5q0 -313 -221 -535.5t-532.5 -222.5t-530.5 222.5t-219 535.5zM254 727q0 -254 168 -428t414 -174q244 0 412.5 174t168.5 428t-169 427t-412 173q-246 0 -414 -173t-168 -427zM440 727q0 180 116 298 t286 118q147 0 238 -76t120 -182l-168 -62q-14 61 -60 103.5t-128 42.5q-90 0 -153.5 -64.5t-63.5 -177.5q0 -115 63.5 -180.5t155.5 -65.5q82 0 130 43t66 101l164 -60q-31 -104 -124 -180t-236 -76q-172 0 -289 120t-117 298z" />
<glyph unicode="&#xab;" horiz-adv-x="1024" d="M57 600l279 397h227l-274 -399l272 -393h-227zM481 600l279 397h227l-274 -399l272 -393h-227z" />
<glyph unicode="&#xad;" d="M92 494v211h578v-211h-578z" />
<glyph unicode="&#xae;" horiz-adv-x="1675" d="M86 727q0 313 219 534.5t530.5 221.5t532.5 -222.5t221 -533.5q0 -313 -221 -535.5t-532.5 -222.5t-530.5 222.5t-219 535.5zM254 727q0 -254 168 -428t414 -174q244 0 412.5 174t168.5 428t-169 427t-412 173q-246 0 -414 -173t-168 -427zM573 322v821h306 q119 0 199.5 -76t80.5 -186q0 -84 -46 -148.5t-122 -93.5l174 -317h-200l-156 294h-59v-294h-177zM750 766h100q61 0 95 29.5t34 83t-34 84t-95 30.5h-100v-227z" />
<glyph unicode="&#xb4;" horiz-adv-x="585" d="M61 1122l183 303h280l-268 -303h-195z" />
<glyph unicode="&#xb8;" horiz-adv-x="606" d="M57 -358l84 102q72 -72 150 -72q90 0 90 62q0 27 -22.5 44t-61.5 17q-30 0 -57 -10l-72 88l98 154h160l-80 -123q88 -2 143.5 -49.5t55.5 -122.5q0 -80 -62.5 -134.5t-189.5 -54.5q-76 0 -139.5 29t-96.5 70z" />
<glyph unicode="&#xbb;" horiz-adv-x="1024" d="M37 997h227l279 -397l-277 -395h-227l272 393zM461 997h227l279 -397l-277 -395h-227l272 393z" />
<glyph unicode="&#x2c6;" horiz-adv-x="811" d="M61 1124l220 293h247l222 -293h-203l-144 158l-143 -158h-199z" />
<glyph unicode="&#x2da;" horiz-adv-x="587" d="M61 1321q0 96 69 161.5t163 65.5q96 0 164.5 -65.5t68.5 -161.5t-68.5 -160.5t-164.5 -64.5q-94 0 -163 65.5t-69 159.5zM203 1321q0 -39 25.5 -64.5t62.5 -25.5q39 0 65.5 25.5t26.5 64.5t-25.5 65.5t-66.5 26.5q-37 0 -62.5 -26.5t-25.5 -65.5z" />
<glyph unicode="&#x2dc;" horiz-adv-x="788" d="M53 1176q0 115 58.5 175t152.5 60q68 0 144 -45l20 -12q57 -35 88 -35q63 0 64 90h155v-35q0 -115 -58.5 -177t-150.5 -62q-68 0 -145 47l-21 12q-55 33 -88 33q-61 0 -61 -88h-156z" />
<glyph unicode="&#x2000;" horiz-adv-x="827" />
<glyph unicode="&#x2001;" horiz-adv-x="1655" />
<glyph unicode="&#x2002;" horiz-adv-x="827" />
<glyph unicode="&#x2003;" horiz-adv-x="1655" />
<glyph unicode="&#x2004;" horiz-adv-x="551" />
<glyph unicode="&#x2005;" horiz-adv-x="413" />
<glyph unicode="&#x2006;" horiz-adv-x="275" />
<glyph unicode="&#x2007;" horiz-adv-x="275" />
<glyph unicode="&#x2008;" horiz-adv-x="206" />
<glyph unicode="&#x2009;" horiz-adv-x="331" />
<glyph unicode="&#x200a;" horiz-adv-x="91" />
<glyph unicode="&#x2010;" d="M92 494v211h578v-211h-578z" />
<glyph unicode="&#x2011;" d="M92 494v211h578v-211h-578z" />
<glyph unicode="&#x2012;" d="M92 494v211h578v-211h-578z" />
<glyph unicode="&#x2013;" horiz-adv-x="1312" d="M129 496v206h1053v-206h-1053z" />
<glyph unicode="&#x2014;" horiz-adv-x="2236" d="M150 496v206h1937v-206h-1937z" />
<glyph unicode="&#x2018;" horiz-adv-x="462" d="M76 1094q0 174 91 267t204 103v-112q-63 -12 -111.5 -64.5t-50.5 -118.5q20 10 43 11q59 0 98 -38.5t39 -99.5q0 -55 -43 -95t-106 -40q-72 0 -118 51.5t-46 135.5z" />
<glyph unicode="&#x2019;" horiz-adv-x="471" d="M76 1329q0 57 43 98t108 41q74 0 122 -53t48 -137q0 -180 -94 -274.5t-209 -106.5v113q63 12 112.5 66t51.5 122q-20 -10 -43 -10q-61 0 -100 39t-39 102z" />
<glyph unicode="&#x201a;" horiz-adv-x="471" d="M76 133q0 57 43 98t108 41q74 0 122 -52t48 -138q0 -178 -94 -273.5t-209 -107.5v115q63 10 112.5 64t51.5 124q-10 -10 -43 -10q-61 0 -100 38t-39 101z" />
<glyph unicode="&#x201c;" horiz-adv-x="843" d="M76 1100q0 174 91 267t204 103v-112q-63 -10 -111.5 -63.5t-50.5 -118.5q20 10 43 10q59 0 98 -38t39 -99q0 -55 -43 -95.5t-106 -40.5q-72 0 -118 51.5t-46 135.5zM455 1100q0 174 92 266t203 104v-112q-61 -10 -109.5 -63.5t-50.5 -118.5q20 10 41 10q61 0 99 -38 t38 -99q0 -55 -43 -95.5t-107 -40.5q-72 0 -117.5 51.5t-45.5 135.5z" />
<glyph unicode="&#x201d;" horiz-adv-x="841" d="M76 1327q0 57 42 97t105 40q74 0 120 -51t46 -135q0 -174 -92 -266t-205 -105v111q66 12 113 64.5t49 119.5q-10 -10 -43 -10q-59 0 -97 37t-38 98zM453 1327q0 57 43 97t106 40q72 0 118 -51t46 -135q0 -174 -91 -266t-204 -105v111q66 12 112 64.5t48 119.5 q-10 -10 -41 -10q-61 0 -99 37t-38 98z" />
<glyph unicode="&#x201e;" horiz-adv-x="841" d="M76 129q0 57 42 97t105 40q74 0 120 -51t46 -135q0 -174 -92 -266.5t-205 -104.5v111q66 12 113 64.5t49 119.5q-10 -10 -43 -10q-59 0 -97 37t-38 98zM453 129q0 57 43 97t106 40q72 0 118 -51t46 -135q0 -174 -91 -266.5t-204 -104.5v111q66 12 112 64.5t48 119.5 q-10 -10 -41 -10q-61 0 -99 37t-38 98z" />
<glyph unicode="&#x2022;" horiz-adv-x="1110" d="M129 602q0 178 125 303t301 125t301 -125t125 -303q0 -174 -126 -299t-300 -125t-300 125t-126 299z" />
<glyph unicode="&#x2026;" horiz-adv-x="1896" d="M168 133q0 63 44 107.5t105 44.5q63 0 107.5 -44.5t44.5 -107.5q0 -61 -44 -105t-108 -44q-61 0 -105 44t-44 105zM797 133q0 63 44 107.5t107.5 44.5t106.5 -44.5t43 -107.5q0 -61 -43 -105t-106.5 -44t-107.5 44t-44 105zM1427 133q0 63 44.5 107.5t107.5 44.5 t106.5 -44.5t43.5 -107.5q0 -61 -43.5 -105t-106.5 -44t-107.5 44t-44.5 105z" />
<glyph unicode="&#x202f;" horiz-adv-x="331" />
<glyph unicode="&#x2039;" horiz-adv-x="600" d="M57 600l279 397h227l-274 -399l272 -393h-227z" />
<glyph unicode="&#x203a;" horiz-adv-x="600" d="M37 997h229l277 -397l-277 -395h-227l272 393z" />
<glyph unicode="&#x205f;" horiz-adv-x="413" />
<glyph unicode="&#x20ac;" horiz-adv-x="1398" d="M129 408v180h158q-4 37 -4 74q0 33 4 73h-158v178h193q72 209 249 327t390 118t350 -94l-94 -191q-98 72 -256 72q-123 0 -225.5 -58.5t-157.5 -173.5h563l-86 -178h-525q-4 -33 -4 -71q0 -47 4 -76h463l-84 -180h-329q55 -109 155.5 -165.5t222.5 -56.5q180 0 285 99 l115 -176q-164 -139 -400 -140q-213 0 -388 116t-246 323h-195z" />
<glyph unicode="&#x2122;" horiz-adv-x="1777" d="M66 1294v158h614v-158h-219v-589h-176v589h-219zM799 705v747h235l199 -475l194 475h228v-747h-168v464l-195 -464h-131l-190 458v-458h-172z" />
<glyph unicode="&#x25fc;" horiz-adv-x="993" d="M0 0v993h993v-993h-993z" />
</font>
</defs>
</svg>
